<?xml version="1.0" encoding="UTF-8" standalone="no"?>
<!DOCTYPE svg PUBLIC "-//W3C//DTD SVG 1.1//EN" "http://www.w3.org/Graphics/SVG/1.1/DTD/svg11.dtd">
<svg width="100%" height="100%" viewBox="0 0 64 64" version="1.1" xmlns="http://www.w3.org/2000/svg" xmlns:xlink="http://www.w3.org/1999/xlink" xml:space="preserve" xmlnsSerif="http://www.serif.com/" style="fill-rule:evenodd;clip-rule:evenodd;stroke-linejoin:round;stroke-miterlimit:2;">
    <g>
        <path d="M52.4,10.7L15.9,10.7C14.8,10.7 13.2,10.4 13.2,8.3C13.2,6.7 14.5,5.4 16.1,5.4L53.2,5.4C54.8,5.4 55.9,4.3 55.9,2.7C55.9,1.1 54.8,0 53.2,0L16.1,0C11.8,0 8.1,3.5 7.8,7.7L7.8,57.3C7.8,61 11,64 15,64L52.6,64C54.5,64 56.1,62.4 56.1,60.5L56.1,14.1C55.9,12.3 54.3,10.7 52.4,10.7ZM50.6,58.7L15.1,58.7C14,58.7 13.2,58.2 13.2,57.4L13.2,15.5C14,15.8 14.8,16 15.9,16L50.6,16L50.6,58.7Z" style="fill:white;fill-rule:nonzero;"/>
        <path d="M23.9,56L39.9,56C41.5,56 42.6,54.9 42.6,53.3C42.6,51.7 41.5,50.6 39.9,50.6L23.9,50.6C22.3,50.6 21.2,51.7 21.2,53.3C21.2,54.9 22.3,56 23.9,56Z" style="fill:white;fill-rule:nonzero;"/>
        <path d="M23.9,32L39.9,32C41.5,32 42.6,30.9 42.6,29.3L42.6,21.3C42.6,19.7 41.5,18.6 39.9,18.6L23.9,18.6C22.3,18.6 21.2,19.7 21.2,21.3L21.2,29.3C21.2,30.9 22.3,32 23.9,32ZM26.5,24L37.2,24L37.2,26.7L26.5,26.7L26.5,24Z" style="fill:white;fill-rule:nonzero;"/>
    </g>
</svg>
