<?xml version="1.0" encoding="UTF-8" standalone="no"?>
<!DOCTYPE svg PUBLIC "-//W3C//DTD SVG 1.1//EN" "http://www.w3.org/Graphics/SVG/1.1/DTD/svg11.dtd">
<svg width="100%" height="100%" viewBox="0 0 64 64" version="1.1" xmlns="http://www.w3.org/2000/svg" xmlns:xlink="http://www.w3.org/1999/xlink" xml:space="preserve" xmlns:serif="http://www.serif.com/" style="fill-rule:evenodd;clip-rule:evenodd;stroke-linejoin:round;stroke-miterlimit:2;">
    <g>
        <g transform="matrix(0.640691,0,0,0.640691,22.9958,22.9958)">
            <path d="M22.7,42.7C26.4,42.7 29.4,39.8 29.4,36C29.4,32.2 26.5,29.3 22.7,29.3C18.9,29.3 16,32.3 16,36C16,39.7 18.9,42.7 22.7,42.7ZM22.7,34.7C23.5,34.7 24,35.2 24,36C24,36.8 23.5,37.3 22.7,37.3C21.9,37.3 21.4,36.8 21.4,36C21.4,35.2 21.9,34.7 22.7,34.7Z" style="fill:white;fill-rule:nonzero;"/>
        </g>
        <g transform="matrix(0.640691,0,0,0.640691,22.9958,22.9958)">
            <path d="M60.8,0L29.9,0C28,0 26.7,1.3 26.7,3.2L26.7,21.3L3.2,21.3C1.3,21.3 0,22.6 0,24.5L0,60.8C0,62.7 1.3,64 3.2,64L34.1,64C36,64 37.3,62.7 37.3,60.8L37.3,42.7L60.8,42.7C62.7,42.7 64,41.4 64,39.5L64,3.2C64,1.3 62.7,0 60.8,0ZM32,5.3L58.7,5.3L58.7,22.9C58.2,23.2 57.4,23.7 56.8,24C55.7,24.8 54.9,25.6 53.9,26.4C51.2,28.8 49.6,29.9 47.8,29.1C47.5,29.1 47,28.6 46.7,28.3L46.4,28C44.8,26.7 42.9,25.1 40.5,24.5C39.4,24.2 38.4,24 37.3,24.2C37,22.6 35.7,21.3 34.1,21.3L32,21.3L32,5.3ZM32,26.7L32,44.3C31.5,44.6 30.7,45.1 30.1,45.4C29,46.2 28.2,47 27.2,47.8C24.5,50.2 22.9,51.3 21.1,50.5C20.8,50.5 20.3,50 19.8,49.4L19.5,49.1C17.9,47.8 16,46.4 13.6,45.6C10.7,44.8 7.7,45.9 5.3,47.5L5.3,26.7L32,26.7ZM5.3,58.7L5.3,53.6C5.6,53.3 5.8,53.3 6.1,53.1C8.8,51.5 10.6,50.4 12.5,51C13.8,51.3 15.2,52.3 16.5,53.4L16.8,53.7C17.6,54.2 18.4,55 19.7,55.6C20.8,55.9 21.8,56.1 22.6,56.1C26.1,56.1 29,53.7 31.1,51.8C31.4,51.5 31.9,51.3 32.2,50.7L32.2,58.7L5.3,58.7ZM43.2,32.3C44,32.8 44.8,33.6 46.1,34.2C47.2,34.7 48.2,34.7 49.3,34.7C52.8,34.7 55.7,32.3 57.6,30.4C57.9,30.1 58.4,29.9 58.7,29.3L58.7,37.3L37.3,37.3L37.3,29.6L38.9,29.6C40.3,29.9 41.6,30.9 43.2,32.3Z" style="fill:white;fill-rule:nonzero;"/>
        </g>
        <g transform="matrix(0.640691,0,0,0.640691,22.9958,22.9958)">
            <path d="M49.3,21.3C53,21.3 56,18.4 56,14.6C56,10.8 53.1,8 49.3,8C45.6,8 42.6,10.9 42.6,14.7C42.6,18.5 45.6,21.3 49.3,21.3ZM49.3,13.3C50.1,13.3 50.6,13.8 50.6,14.6C50.6,15.4 50.1,15.9 49.3,15.9C48.5,15.9 48,15.4 48,14.6C48,13.9 48.5,13.3 49.3,13.3Z" style="fill:white;fill-rule:nonzero;"/>
        </g>
    </g>
    <g transform="matrix(0.629726,0,0,0.629726,0,0)">
        <g transform="matrix(0.855202,0,0,0.855202,0,0)">
            <path d="M60,13.3L34.7,13.3L34.7,9.9C36.3,9.1 37.4,7.2 37.4,5.4C37.3,2.4 34.9,0 32,0C29.1,0 26.7,2.4 26.7,5.3C26.7,7.2 27.8,9 29.4,9.8L29.4,13.3L4,13.3C1.9,13.3 0,14.9 0,17.3L0,60C0,62.1 1.9,64 4,64L60,64C62.1,64 64,62.1 64,60L64,17.4C64,15.2 62.1,13.3 60,13.3ZM58.7,58.7L5.3,58.7L5.3,32L58.6,32L58.6,58.7L58.7,58.7ZM5.3,26.7L5.3,18.7L58.6,18.7L58.6,26.7L5.3,26.7Z" style="fill:white;fill-rule:nonzero;"/>
        </g>
        <g transform="matrix(0.855202,0,0,0.855202,0,0)">
            <path d="M14.7,42.7L17.4,42.7C18.2,42.7 18.7,42.2 18.7,41.4L18.7,38.7C18.7,37.9 18.2,37.4 17.4,37.4L14.7,37.4C13.9,37.4 13.4,37.9 13.4,38.7L13.4,41.4C13.3,42.1 13.9,42.7 14.7,42.7Z" style="fill:white;fill-rule:nonzero;"/>
        </g>
        <g transform="matrix(0.855202,0,0,0.855202,0,0)">
            <path d="M25.3,42.7L28,42.7C28.8,42.7 29.3,42.2 29.3,41.4L29.3,38.7C29.3,37.9 28.8,37.4 28,37.4L25.3,37.4C24.5,37.4 24,37.9 24,38.7L24,41.4C24,42.1 24.5,42.7 25.3,42.7Z" style="fill:white;fill-rule:nonzero;"/>
        </g>
        <g transform="matrix(0.855202,0,0,0.855202,0,0)">
            <path d="M36,42.7L38.7,42.7C39.5,42.7 40,42.2 40,41.4L40,38.7C40,37.9 39.5,37.4 38.7,37.4L36,37.4C35.2,37.4 34.7,37.9 34.7,38.7L34.7,41.4C34.7,42.1 35.2,42.7 36,42.7Z" style="fill:white;fill-rule:nonzero;"/>
        </g>
        <g transform="matrix(0.855202,0,0,0.855202,0,0)">
            <path d="M46.7,42.7L49.4,42.7C50.2,42.7 50.7,42.2 50.7,41.4L50.7,38.7C50.7,37.9 50.2,37.4 49.4,37.4L46.7,37.4C45.9,37.4 45.4,37.9 45.4,38.7L45.4,41.4C45.3,42.1 45.9,42.7 46.7,42.7Z" style="fill:white;fill-rule:nonzero;"/>
        </g>
        <g transform="matrix(0.855202,0,0,0.855202,0,0)">
            <path d="M14.7,53.3L17.4,53.3C18.2,53.3 18.7,52.8 18.7,52L18.7,49.3C18.7,48.5 18.2,48 17.4,48L14.7,48C13.9,48 13.4,48.5 13.4,49.3L13.4,52C13.3,52.8 13.9,53.3 14.7,53.3Z" style="fill:white;fill-rule:nonzero;"/>
        </g>
        <g transform="matrix(0.855202,0,0,0.855202,0,0)">
            <path d="M25.3,53.3L28,53.3C28.8,53.3 29.3,52.8 29.3,52L29.3,49.3C29.3,48.5 28.8,48 28,48L25.3,48C24.5,48 24,48.5 24,49.3L24,52C24,52.8 24.5,53.3 25.3,53.3Z" style="fill:white;fill-rule:nonzero;"/>
        </g>
        <g transform="matrix(0.855202,0,0,0.855202,0,0)">
            <path d="M36,53.3L38.7,53.3C39.5,53.3 40,52.8 40,52L40,49.3C40,48.5 39.5,48 38.7,48L36,48C35.2,48 34.7,48.5 34.7,49.3L34.7,52C34.7,52.8 35.2,53.3 36,53.3Z" style="fill:white;fill-rule:nonzero;"/>
        </g>
        <g transform="matrix(0.855202,0,0,0.855202,0,0)">
            <path d="M46.7,53.3L49.4,53.3C50.2,53.3 50.7,52.8 50.7,52L50.7,49.3C50.7,48.5 50.2,48 49.4,48L46.7,48C45.9,48 45.4,48.5 45.4,49.3L45.4,52C45.3,52.8 45.9,53.3 46.7,53.3Z" style="fill:white;fill-rule:nonzero;"/>
        </g>
    </g>
</svg>
