<?xml version="1.0" encoding="UTF-8" standalone="no"?>
<!DOCTYPE svg PUBLIC "-//W3C//DTD SVG 1.1//EN" "http://www.w3.org/Graphics/SVG/1.1/DTD/svg11.dtd">
<svg width="100%" height="100%" viewBox="0 0 38 30" version="1.1" xmlns="http://www.w3.org/2000/svg" xmlns:xlink="http://www.w3.org/1999/xlink" xml:space="preserve" xmlnsSerif="http://www.serif.com/" style="fill-rule:evenodd;clip-rule:evenodd;stroke-linejoin:round;stroke-miterlimit:2;">
    <g id="Layer-1" serif:id="Layer 1" transform="matrix(1,0,0,1,-5,-9)">
        <path id="rect2248" d="M42.218,13.029L42.218,34.971C42.218,36.763 40.763,38.218 38.971,38.218C38.971,38.218 9.029,38.218 9.029,38.218C7.237,38.218 5.782,36.763 5.782,34.971L5.782,13.029C5.782,11.237 7.237,9.782 9.029,9.782L38.971,9.782C40.763,9.782 42.218,11.237 42.218,13.029ZM25.924,27.879L25.898,27.904C25.013,28.781 24.227,29.122 23.502,29.117C23.502,29.117 23.502,29.117 23.501,29.117C22.775,29.113 21.996,28.766 21.138,27.86C21.132,27.854 21.126,27.848 21.12,27.841L9.55,16.416C9.325,16.195 8.989,16.13 8.698,16.251C8.407,16.373 8.218,16.657 8.218,16.973L8.218,35C8.218,35.432 8.568,35.782 9,35.782L39,35.782C39.432,35.782 39.782,35.432 39.782,35L39.782,16.592C39.782,16.28 39.596,15.997 39.309,15.874C39.023,15.75 38.69,15.809 38.463,16.024C34.632,19.645 27.523,26.367 26.146,27.669C26.009,27.799 25.915,27.888 25.915,27.888L25.924,27.879ZM22.856,26.134L22.98,26.258C23.255,26.533 23.536,26.49 23.536,26.49C23.536,26.49 23.802,26.532 24.075,26.275L24.209,26.148L37.513,13.568C37.746,13.348 37.821,13.008 37.703,12.711C37.584,12.413 37.296,12.218 36.976,12.218L10.67,12.218C10.353,12.218 10.067,12.409 9.946,12.703C9.826,12.996 9.895,13.334 10.12,13.557L22.856,26.134Z" style="fill:rgb(43,121,35);"/>
    </g>
</svg>
