<?xml version="1.0" encoding="UTF-8" standalone="no"?>
<!DOCTYPE svg PUBLIC "-//W3C//DTD SVG 1.1//EN" "http://www.w3.org/Graphics/SVG/1.1/DTD/svg11.dtd">
<svg width="100%" height="100%" viewBox="0 0 64 64" version="1.1" xmlns="http://www.w3.org/2000/svg" xmlns:xlink="http://www.w3.org/1999/xlink" xml:space="preserve" xmlns:serif="http://www.serif.com/" style="fill-rule:evenodd;clip-rule:evenodd;stroke-linejoin:round;stroke-miterlimit:2;">
    <path d="M56.5,19.5L36,1.6C33.6,-0.5 30.1,-0.5 28,1.6L7.5,19.5C6.2,20.8 5.4,22.4 5.4,24.3L5.4,57.9C5.4,61.4 8.1,64 11.5,64L20.6,64C24.1,64 26.7,61.3 26.7,57.9L26.7,46.1C26.7,45.6 27,45.3 27.5,45.3L36.6,45.3C37.1,45.3 37.4,45.6 37.4,46.1L37.4,57.8C37.4,61.3 40.1,63.9 43.5,63.9L52.6,63.9C56.1,63.9 58.7,61.2 58.7,57.8L58.7,24.3C58.7,22.4 57.9,20.8 56.5,19.5ZM53.3,57.9C53.3,58.4 53,58.7 52.5,58.7L43.4,58.7C42.9,58.7 42.6,58.4 42.6,57.9L42.6,46.1C42.6,42.6 39.9,40 36.5,40L27.4,40C23.9,40 21.3,42.7 21.3,46.1L21.3,57.8C21.3,58.3 21,58.6 20.5,58.6L11.4,58.6C10.9,58.6 10.6,58.3 10.6,57.8L10.6,24.3C10.6,24 10.6,23.8 10.9,23.8L31.5,5.9C31.8,5.6 32.3,5.6 32.6,5.9L53,23.8C53.3,23.8 53.3,24.1 53.3,24.3L53.3,57.9Z" style="fill:white;fill-rule:nonzero;"/>
</svg>
