<svg width="37" height="29" xmlns="http://www.w3.org/2000/svg"><path d="M36.819 3.604v21.942a3.249 3.249 0 0 1-3.247 3.247H3.63a3.249 3.249 0 0 1-3.247-3.247V3.604A3.249 3.249 0 0 1 3.63.357h29.942a3.249 3.249 0 0 1 3.247 3.247zm-16.294 14.85-.026.025c-.885.877-1.671 1.218-2.396 1.213h-.001c-.726-.004-1.505-.351-2.363-1.257l-.018-.02L4.15 6.992a.782.782 0 0 0-1.332.557v18.027c0 .432.35.782.782.782h30c.432 0 .782-.35.782-.782V7.167a.782.782 0 0 0-1.32-.568L20.748 18.244l-.231.219zm-3.068-1.745.124.124c.275.275.556.232.556.232s.266.042.539-.215l.134-.127 13.304-12.58a.782.782 0 0 0-.537-1.35H5.27a.783.783 0 0 0-.55 1.339z" style="clip-rule:evenodd;fill:#2b7923;fill-rule:evenodd;stroke-linejoin:round;stroke-miterlimit:2"/></svg>