<?xml version="1.0" encoding="UTF-8" standalone="no"?>
<!DOCTYPE svg PUBLIC "-//W3C//DTD SVG 1.1//EN" "http://www.w3.org/Graphics/SVG/1.1/DTD/svg11.dtd">
<svg width="100%" height="100%" viewBox="0 0 1125 210" version="1.1" xmlns="http://www.w3.org/2000/svg" xmlns:xlink="http://www.w3.org/1999/xlink" xml:space="preserve" xmlns:serif="http://www.serif.com/" style="fill-rule:evenodd;clip-rule:evenodd;stroke-linejoin:round;stroke-miterlimit:2;">
    <g id="ArtBoard1" transform="matrix(1,0,0,0.0860495,0,0)">
        <rect x="0" y="0" width="1125" height="2436" style="fill:none;"/>
        <g transform="matrix(0.380834,0,0,4.42576,833.622,547.962)">
            <g>
                <path d="M364.004,318.068L399.261,321.802L378.396,293.139L353.777,290.527L350.45,288.608L368.79,283.695C371.103,283.076 372.478,280.695 371.859,278.378C371.241,276.06 368.856,274.685 366.539,275.303L339.81,282.464L306.853,263.437L314.078,261.5L338.039,275.337C340.117,276.539 342.772,275.828 343.973,273.754C345.175,271.673 344.461,269.02 342.383,267.817L325.939,258.327L329.656,257.333L354.111,261.183L381.681,238.895L346.658,233.375L327.408,248.94L323.694,249.934L333.187,233.49C334.386,231.416 333.675,228.762 331.598,227.566C329.523,226.364 326.864,227.075 325.664,229.149L311.83,253.113L296.219,257.298L232.211,220.347L265.029,220.341L284.594,239.906C286.293,241.605 289.039,241.605 290.739,239.906C292.438,238.213 292.435,235.462 290.739,233.767L277.318,220.34L281.156,220.34L303.781,230.392L336.185,216L303.78,201.606L281.155,211.657L277.317,211.657L290.738,198.232C292.434,196.536 292.437,193.786 290.738,192.092C289.039,190.394 286.293,190.394 284.593,192.091L265.028,211.657L232.21,211.657L296.218,174.701L311.829,178.885L325.663,202.847C326.862,204.924 329.516,205.636 331.597,204.435C333.674,203.237 334.385,200.581 333.186,198.504L323.693,182.065L327.407,183.059L346.657,198.623L381.68,193.106L354.11,170.817L329.655,174.668L325.938,173.674L342.382,164.18C344.46,162.981 345.168,160.324 343.972,158.247C342.772,156.17 340.117,155.458 338.038,156.659L314.077,170.493L306.852,168.558L339.809,149.531L366.538,156.692C368.855,157.314 371.24,155.938 371.858,153.62C372.476,151.305 371.101,148.924 368.789,148.304L350.446,143.388L353.776,141.468L378.395,138.86L399.26,110.194L364.003,113.928L349.432,133.944L346.103,135.866L351.015,117.528C351.64,115.213 350.264,112.833 347.947,112.212C345.629,111.589 343.248,112.965 342.629,115.283L335.468,142.008L302.511,161.037L304.448,153.815L328.411,139.982C330.486,138.781 331.2,136.125 330.001,134.046C328.799,131.969 326.146,131.257 324.065,132.458L307.627,141.95L308.621,138.241L324.186,118.988L318.666,83.963L296.375,111.536L300.228,135.993L299.234,139.704L289.744,123.263C288.548,121.184 285.889,120.474 283.813,121.672C281.732,122.873 281.021,125.528 282.221,127.607L296.055,151.568L291.87,167.179L227.868,204.133L244.278,175.712L271.004,168.55C273.317,167.929 274.692,165.549 274.073,163.231C273.454,160.913 271.073,159.538 268.756,160.161L250.416,165.072L252.338,161.749L272.357,147.178L276.091,111.921L247.425,132.785L244.816,157.406L242.897,160.731L237.984,142.393C237.366,140.078 234.981,138.701 232.667,139.325C230.347,139.945 228.974,142.326 229.592,144.643L236.753,171.371L220.341,199.797L220.341,125.885L231.775,114.455L259.446,114.455C261.842,114.455 263.787,112.512 263.787,110.113C263.787,107.716 261.842,105.77 259.446,105.77L240.459,105.77L243.176,103.055L266.281,94.164L279.017,61.073L245.926,73.807L237.031,96.914L234.314,99.629L234.314,80.64C234.314,78.243 232.372,76.298 229.973,76.298C227.574,76.298 225.629,78.243 225.629,80.64L225.629,108.311L220.34,113.598L220.34,75.542L239.908,55.979C241.604,54.281 241.604,51.531 239.908,49.838C238.209,48.14 235.464,48.14 233.766,49.838L220.34,63.26L220.34,59.419L230.395,36.792L215.998,4.39L201.603,36.792L211.654,59.416L211.654,63.26L198.232,49.838C196.536,48.14 193.786,48.14 192.091,49.838C190.393,51.531 190.395,54.281 192.091,55.979L211.654,75.542L211.654,113.599L206.37,108.312L206.37,80.64C206.37,78.243 204.427,76.298 202.025,76.298C199.628,76.298 197.686,78.243 197.686,80.64L197.686,99.626L194.968,96.911L186.075,73.804L152.986,61.07L165.719,94.161L188.826,103.052L191.541,105.767L172.556,105.767C170.159,105.767 168.215,107.713 168.215,110.11C168.215,112.509 170.158,114.452 172.557,114.452L200.225,114.452L211.653,125.882L211.653,199.788L195.245,171.368L202.407,144.64C203.027,142.324 201.654,139.942 199.335,139.322C197.019,138.699 194.637,140.075 194.018,142.39L189.105,160.728L187.183,157.401L184.575,132.781L155.91,111.92L159.645,147.177L179.661,161.748L181.583,165.071L163.245,160.16C160.93,159.537 158.547,160.912 157.926,163.23C157.306,165.548 158.681,167.928 160.998,168.549L187.725,175.711L204.137,204.137L140.126,167.181L135.942,151.567L149.779,127.605C150.977,125.528 150.267,122.873 148.188,121.672C146.11,120.474 143.457,121.184 142.256,123.263L132.764,139.704L131.77,135.993L135.624,111.536L113.332,83.963L107.815,118.988L123.379,138.241L124.373,141.95L107.934,132.458C105.857,131.257 103.2,131.97 101.999,134.049C100.799,136.125 101.515,138.781 103.591,139.982L127.551,153.815L129.488,161.037L96.531,142.011L89.369,115.283C88.748,112.965 86.367,111.59 84.05,112.212C81.734,112.834 80.36,115.213 80.979,117.531L85.894,135.866L82.565,133.947L67.997,113.93L32.739,110.196L53.603,138.863L78.223,141.471L81.549,143.39L63.211,148.306C60.897,148.926 59.521,151.307 60.141,153.625C60.761,155.939 63.143,157.315 65.461,156.694L92.189,149.533L125.146,168.56L117.923,170.498L93.959,156.661C91.882,155.46 89.228,156.173 88.027,158.252C86.828,160.329 87.54,162.983 89.616,164.184L106.057,173.676L102.349,174.67L77.891,170.819L50.32,193.107L85.343,198.624L104.595,183.06L108.305,182.066L98.813,198.505C97.614,200.582 98.325,203.239 100.402,204.438C102.479,205.636 105.134,204.924 106.336,202.847L120.17,178.885L135.782,174.703L199.79,211.654L166.97,211.654L147.404,192.091C145.709,190.395 142.959,190.395 141.263,192.091C139.565,193.789 139.565,196.536 141.263,198.232L154.687,211.654L150.845,211.654L128.22,201.606L95.819,216L128.22,230.392L150.845,220.346L154.689,220.346L141.264,233.767C139.566,235.461 139.566,238.212 141.264,239.906C142.96,241.605 145.71,241.605 147.405,239.906L166.971,220.346L199.791,220.34L135.786,257.297L120.171,253.112L106.337,229.148C105.136,227.074 102.48,226.363 100.403,227.565C98.325,228.761 97.614,231.415 98.814,233.489L108.306,249.933L104.596,248.939L85.344,233.374L50.321,238.894L77.893,261.182L102.348,257.332L106.06,258.326L89.618,267.816C87.542,269.018 86.829,271.671 88.029,273.753C89.23,275.827 91.884,276.538 93.961,275.336L117.926,261.499L125.148,263.441L92.189,282.47L65.461,275.303C63.143,274.685 60.763,276.06 60.141,278.378C59.521,280.695 60.897,283.076 63.211,283.695L81.549,288.608L78.223,290.533L53.603,293.139L32.739,321.802L67.997,318.068L82.565,298.052L85.894,296.133L80.979,314.473C80.359,316.785 81.733,319.166 84.05,319.79C86.366,320.408 88.748,319.032 89.369,316.715L96.531,289.988L129.488,270.961L127.551,278.186L103.591,292.018C101.514,293.22 100.799,295.872 102,297.954C103.199,300.029 105.856,300.74 107.933,299.544L124.372,290.047L123.378,293.758L107.814,313.011L113.331,348.037L135.623,320.467L131.769,296.007L132.763,292.296L142.255,308.739C143.456,310.814 146.11,311.525 148.187,310.329C150.266,309.133 150.976,306.474 149.778,304.398L135.941,280.435L140.125,264.823L204.136,227.867L187.724,256.287L160.997,263.454C158.681,264.072 157.305,266.453 157.925,268.771C158.546,271.088 160.929,272.464 163.244,271.84L181.582,266.927L179.66,270.25L159.644,284.821L155.909,320.085L184.575,299.219L187.183,274.597L189.105,271.268L194.018,289.608C194.638,291.925 197.019,293.301 199.335,292.676C201.654,292.058 203.027,289.677 202.407,287.359L195.245,260.632L211.656,232.206L211.656,306.114L200.225,317.547L172.557,317.547C170.158,317.547 168.215,319.489 168.215,321.888C168.215,324.287 170.158,326.235 172.556,326.235L191.541,326.235L188.826,328.946L165.719,337.842L152.986,370.932L186.075,358.199L194.968,335.092L197.686,332.375L197.686,351.362C197.686,353.755 199.628,355.702 202.025,355.702C204.427,355.702 206.37,353.755 206.37,351.362L206.37,323.693L211.657,318.398L211.657,356.46L192.091,376.024C190.395,377.718 190.395,380.469 192.091,382.169C193.789,383.862 196.536,383.862 198.232,382.169L211.657,368.742L211.657,372.586L201.603,395.208L216,427.609L230.395,395.207L220.343,372.585L220.343,368.741L233.767,382.168C235.464,383.861 238.209,383.861 239.909,382.168C241.605,380.469 241.605,377.718 239.909,376.023L220.344,356.459L220.344,318.397L225.63,323.692L225.63,351.361C225.63,353.754 227.575,355.701 229.974,355.701C232.373,355.701 234.318,353.754 234.315,351.361L234.315,332.374L237.032,335.091L245.927,358.198L279.018,370.931L266.282,337.841L243.177,328.945L240.46,326.234L259.447,326.234C261.84,326.234 263.788,324.287 263.788,321.887C263.788,319.489 261.843,317.546 259.447,317.546L231.776,317.546L220.345,306.113L220.345,232.205L236.754,260.631L229.593,287.358C228.975,289.676 230.348,292.057 232.665,292.675C234.982,293.3 237.367,291.924 237.985,289.607L242.898,271.273L244.817,274.596L247.426,299.218L276.092,320.084L272.358,284.82L252.339,270.249L250.417,266.926L268.757,271.839C271.074,272.463 273.456,271.087 274.074,268.77C274.692,266.452 273.317,264.071 271.005,263.453L244.279,256.286L227.869,227.866L291.871,264.817L296.056,280.434L282.222,304.397C281.022,306.472 281.733,309.131 283.814,310.328C285.889,311.524 288.548,310.813 289.745,308.738L299.235,292.295L300.229,296.006L296.376,320.466L318.667,348.036L324.187,313.01L308.622,293.757L307.628,290.046L324.066,299.543C326.146,300.739 328.799,300.028 330.002,297.953C331.201,295.872 330.487,293.22 328.412,292.017L304.449,278.185L302.512,270.96L335.469,289.987L342.63,316.714C343.249,319.031 345.63,320.407 347.948,319.783C350.265,319.165 351.641,316.783 351.019,314.471L346.109,296.131L349.433,298.05L364.004,318.068Z" style="fill:rgb(73,46,108);fill-opacity:0.54;fill-rule:nonzero;"/>
            </g>
        </g>
        <g transform="matrix(-0.449293,0,0,5.22133,1119.69,55.592)">
            <path d="M2492.13,-11.811L-11.811,-11.811L-11.811,428.948C-11.811,428.948 502.679,96.82 1049.82,295.5C1839.15,582.128 2492.13,345.76 2492.13,345.76L2492.13,-11.811Z" style="fill:url(#_Linear1);"/>
            <clipPath id="_clip2">
                <path d="M2492.13,-11.811L-11.811,-11.811L-11.811,428.948C-11.811,428.948 502.679,96.82 1049.82,295.5C1839.15,582.128 2492.13,345.76 2492.13,345.76L2492.13,-11.811Z"/>
            </clipPath>
            <g clip-path="url(#_clip2)">
                <g transform="matrix(-2.82422,0,0,2.82422,2356.65,-225.723)">
                    <g>
                        <path d="M364.004,318.068L399.261,321.802L378.396,293.139L353.777,290.527L350.45,288.608L368.79,283.695C371.103,283.076 372.478,280.695 371.859,278.378C371.241,276.06 368.856,274.685 366.539,275.303L339.81,282.464L306.853,263.437L314.078,261.5L338.039,275.337C340.117,276.539 342.772,275.828 343.973,273.754C345.175,271.673 344.461,269.02 342.383,267.817L325.939,258.327L329.656,257.333L354.111,261.183L381.681,238.895L346.658,233.375L327.408,248.94L323.694,249.934L333.187,233.49C334.386,231.416 333.675,228.762 331.598,227.566C329.523,226.364 326.864,227.075 325.664,229.149L311.83,253.113L296.219,257.298L232.211,220.347L265.029,220.341L284.594,239.906C286.293,241.605 289.039,241.605 290.739,239.906C292.438,238.213 292.435,235.462 290.739,233.767L277.318,220.34L281.156,220.34L303.781,230.392L336.185,216L303.78,201.606L281.155,211.657L277.317,211.657L290.738,198.232C292.434,196.536 292.437,193.786 290.738,192.092C289.039,190.394 286.293,190.394 284.593,192.091L265.028,211.657L232.21,211.657L296.218,174.701L311.829,178.885L325.663,202.847C326.862,204.924 329.516,205.636 331.597,204.435C333.674,203.237 334.385,200.581 333.186,198.504L323.693,182.065L327.407,183.059L346.657,198.623L381.68,193.106L354.11,170.817L329.655,174.668L325.938,173.674L342.382,164.18C344.46,162.981 345.168,160.324 343.972,158.247C342.772,156.17 340.117,155.458 338.038,156.659L314.077,170.493L306.852,168.558L339.809,149.531L366.538,156.692C368.855,157.314 371.24,155.938 371.858,153.62C372.476,151.305 371.101,148.924 368.789,148.304L350.446,143.388L353.776,141.468L378.395,138.86L399.26,110.194L364.003,113.928L349.432,133.944L346.103,135.866L351.015,117.528C351.64,115.213 350.264,112.833 347.947,112.212C345.629,111.589 343.248,112.965 342.629,115.283L335.468,142.008L302.511,161.037L304.448,153.815L328.411,139.982C330.486,138.781 331.2,136.125 330.001,134.046C328.799,131.969 326.146,131.257 324.065,132.458L307.627,141.95L308.621,138.241L324.186,118.988L318.666,83.963L296.375,111.536L300.228,135.993L299.234,139.704L289.744,123.263C288.548,121.184 285.889,120.474 283.813,121.672C281.732,122.873 281.021,125.528 282.221,127.607L296.055,151.568L291.87,167.179L227.868,204.133L244.278,175.712L271.004,168.55C273.317,167.929 274.692,165.549 274.073,163.231C273.454,160.913 271.073,159.538 268.756,160.161L250.416,165.072L252.338,161.749L272.357,147.178L276.091,111.921L247.425,132.785L244.816,157.406L242.897,160.731L237.984,142.393C237.366,140.078 234.981,138.701 232.667,139.325C230.347,139.945 228.974,142.326 229.592,144.643L236.753,171.371L220.341,199.797L220.341,125.885L231.775,114.455L259.446,114.455C261.842,114.455 263.787,112.512 263.787,110.113C263.787,107.716 261.842,105.77 259.446,105.77L240.459,105.77L243.176,103.055L266.281,94.164L279.017,61.073L245.926,73.807L237.031,96.914L234.314,99.629L234.314,80.64C234.314,78.243 232.372,76.298 229.973,76.298C227.574,76.298 225.629,78.243 225.629,80.64L225.629,108.311L220.34,113.598L220.34,75.542L239.908,55.979C241.604,54.281 241.604,51.531 239.908,49.838C238.209,48.14 235.464,48.14 233.766,49.838L220.34,63.26L220.34,59.419L230.395,36.792L215.998,4.39L201.603,36.792L211.654,59.416L211.654,63.26L198.232,49.838C196.536,48.14 193.786,48.14 192.091,49.838C190.393,51.531 190.395,54.281 192.091,55.979L211.654,75.542L211.654,113.599L206.37,108.312L206.37,80.64C206.37,78.243 204.427,76.298 202.025,76.298C199.628,76.298 197.686,78.243 197.686,80.64L197.686,99.626L194.968,96.911L186.075,73.804L152.986,61.07L165.719,94.161L188.826,103.052L191.541,105.767L172.556,105.767C170.159,105.767 168.215,107.713 168.215,110.11C168.215,112.509 170.158,114.452 172.557,114.452L200.225,114.452L211.653,125.882L211.653,199.788L195.245,171.368L202.407,144.64C203.027,142.324 201.654,139.942 199.335,139.322C197.019,138.699 194.637,140.075 194.018,142.39L189.105,160.728L187.183,157.401L184.575,132.781L155.91,111.92L159.645,147.177L179.661,161.748L181.583,165.071L163.245,160.16C160.93,159.537 158.547,160.912 157.926,163.23C157.306,165.548 158.681,167.928 160.998,168.549L187.725,175.711L204.137,204.137L140.126,167.181L135.942,151.567L149.779,127.605C150.977,125.528 150.267,122.873 148.188,121.672C146.11,120.474 143.457,121.184 142.256,123.263L132.764,139.704L131.77,135.993L135.624,111.536L113.332,83.963L107.815,118.988L123.379,138.241L124.373,141.95L107.934,132.458C105.857,131.257 103.2,131.97 101.999,134.049C100.799,136.125 101.515,138.781 103.591,139.982L127.551,153.815L129.488,161.037L96.531,142.011L89.369,115.283C88.748,112.965 86.367,111.59 84.05,112.212C81.734,112.834 80.36,115.213 80.979,117.531L85.894,135.866L82.565,133.947L67.997,113.93L32.739,110.196L53.603,138.863L78.223,141.471L81.549,143.39L63.211,148.306C60.897,148.926 59.521,151.307 60.141,153.625C60.761,155.939 63.143,157.315 65.461,156.694L92.189,149.533L125.146,168.56L117.923,170.498L93.959,156.661C91.882,155.46 89.228,156.173 88.027,158.252C86.828,160.329 87.54,162.983 89.616,164.184L106.057,173.676L102.349,174.67L77.891,170.819L50.32,193.107L85.343,198.624L104.595,183.06L108.305,182.066L98.813,198.505C97.614,200.582 98.325,203.239 100.402,204.438C102.479,205.636 105.134,204.924 106.336,202.847L120.17,178.885L135.782,174.703L199.79,211.654L166.97,211.654L147.404,192.091C145.709,190.395 142.959,190.395 141.263,192.091C139.565,193.789 139.565,196.536 141.263,198.232L154.687,211.654L150.845,211.654L128.22,201.606L95.819,216L128.22,230.392L150.845,220.346L154.689,220.346L141.264,233.767C139.566,235.461 139.566,238.212 141.264,239.906C142.96,241.605 145.71,241.605 147.405,239.906L166.971,220.346L199.791,220.34L135.786,257.297L120.171,253.112L106.337,229.148C105.136,227.074 102.48,226.363 100.403,227.565C98.325,228.761 97.614,231.415 98.814,233.489L108.306,249.933L104.596,248.939L85.344,233.374L50.321,238.894L77.893,261.182L102.348,257.332L106.06,258.326L89.618,267.816C87.542,269.018 86.829,271.671 88.029,273.753C89.23,275.827 91.884,276.538 93.961,275.336L117.926,261.499L125.148,263.441L92.189,282.47L65.461,275.303C63.143,274.685 60.763,276.06 60.141,278.378C59.521,280.695 60.897,283.076 63.211,283.695L81.549,288.608L78.223,290.533L53.603,293.139L32.739,321.802L67.997,318.068L82.565,298.052L85.894,296.133L80.979,314.473C80.359,316.785 81.733,319.166 84.05,319.79C86.366,320.408 88.748,319.032 89.369,316.715L96.531,289.988L129.488,270.961L127.551,278.186L103.591,292.018C101.514,293.22 100.799,295.872 102,297.954C103.199,300.029 105.856,300.74 107.933,299.544L124.372,290.047L123.378,293.758L107.814,313.011L113.331,348.037L135.623,320.467L131.769,296.007L132.763,292.296L142.255,308.739C143.456,310.814 146.11,311.525 148.187,310.329C150.266,309.133 150.976,306.474 149.778,304.398L135.941,280.435L140.125,264.823L204.136,227.867L187.724,256.287L160.997,263.454C158.681,264.072 157.305,266.453 157.925,268.771C158.546,271.088 160.929,272.464 163.244,271.84L181.582,266.927L179.66,270.25L159.644,284.821L155.909,320.085L184.575,299.219L187.183,274.597L189.105,271.268L194.018,289.608C194.638,291.925 197.019,293.301 199.335,292.676C201.654,292.058 203.027,289.677 202.407,287.359L195.245,260.632L211.656,232.206L211.656,306.114L200.225,317.547L172.557,317.547C170.158,317.547 168.215,319.489 168.215,321.888C168.215,324.287 170.158,326.235 172.556,326.235L191.541,326.235L188.826,328.946L165.719,337.842L152.986,370.932L186.075,358.199L194.968,335.092L197.686,332.375L197.686,351.362C197.686,353.755 199.628,355.702 202.025,355.702C204.427,355.702 206.37,353.755 206.37,351.362L206.37,323.693L211.657,318.398L211.657,356.46L192.091,376.024C190.395,377.718 190.395,380.469 192.091,382.169C193.789,383.862 196.536,383.862 198.232,382.169L211.657,368.742L211.657,372.586L201.603,395.208L216,427.609L230.395,395.207L220.343,372.585L220.343,368.741L233.767,382.168C235.464,383.861 238.209,383.861 239.909,382.168C241.605,380.469 241.605,377.718 239.909,376.023L220.344,356.459L220.344,318.397L225.63,323.692L225.63,351.361C225.63,353.754 227.575,355.701 229.974,355.701C232.373,355.701 234.318,353.754 234.315,351.361L234.315,332.374L237.032,335.091L245.927,358.198L279.018,370.931L266.282,337.841L243.177,328.945L240.46,326.234L259.447,326.234C261.84,326.234 263.788,324.287 263.788,321.887C263.788,319.489 261.843,317.546 259.447,317.546L231.776,317.546L220.345,306.113L220.345,232.205L236.754,260.631L229.593,287.358C228.975,289.676 230.348,292.057 232.665,292.675C234.982,293.3 237.367,291.924 237.985,289.607L242.898,271.273L244.817,274.596L247.426,299.218L276.092,320.084L272.358,284.82L252.339,270.249L250.417,266.926L268.757,271.839C271.074,272.463 273.456,271.087 274.074,268.77C274.692,266.452 273.317,264.071 271.005,263.453L244.279,256.286L227.869,227.866L291.871,264.817L296.056,280.434L282.222,304.397C281.022,306.472 281.733,309.131 283.814,310.328C285.889,311.524 288.548,310.813 289.745,308.738L299.235,292.295L300.229,296.006L296.376,320.466L318.667,348.036L324.187,313.01L308.622,293.757L307.628,290.046L324.066,299.543C326.146,300.739 328.799,300.028 330.002,297.953C331.201,295.872 330.487,293.22 328.412,292.017L304.449,278.185L302.512,270.96L335.469,289.987L342.63,316.714C343.249,319.031 345.63,320.407 347.948,319.783C350.265,319.165 351.641,316.783 351.019,314.471L346.109,296.131L349.433,298.05L364.004,318.068Z" style="fill:white;fill-opacity:0.53;fill-rule:nonzero;"/>
                    </g>
                </g>
            </g>
        </g>
        <g transform="matrix(0.449293,0,0,5.22133,-1143.08,-1117.06)">
            <path d="M5048.1,653.537C5048.1,653.537 4533.61,321.408 3986.47,520.089C3408.29,730.043 2903.27,659.382 2674.48,606.559C2913.94,660.874 3381.27,709.318 3932.62,417.393C4465.61,135.187 5048.1,452.481 5048.1,452.481L5048.1,653.537Z" style="fill:white;fill-opacity:0.4;"/>
        </g>
        <g transform="matrix(0.449293,0,0,5.22133,-1143.08,-1117.06)">
            <path d="M5048.1,573.957C5048.1,573.957 4528.02,241.23 3984.47,471.089C3404.22,716.472 2903.27,659.382 2674.48,606.559C2913.94,660.874 3412.52,706.331 3965.57,446.412C4515.78,187.823 5047.1,518.901 5047.1,518.901L5048.1,573.957Z" style="fill:white;"/>
        </g>
    </g>
    <defs>
        <linearGradient id="_Linear1" x1="0" y1="0" x2="1" y2="0" gradientUnits="userSpaceOnUse" gradientTransform="matrix(-2456,0,0,2456,2456,316.861)"><stop offset="0" style="stop-color:rgb(73,41,118);stop-opacity:1"/><stop offset="0.44" style="stop-color:rgb(63,63,96);stop-opacity:1"/><stop offset="1" style="stop-color:rgb(41,114,43);stop-opacity:1"/></linearGradient>
    </defs>
</svg>
