<svg viewBox="0 0 1125 210" xml:space="preserve" xmlns="http://www.w3.org/2000/svg" fill-rule="evenodd" clip-rule="evenodd" stroke-linejoin="round" stroke-miterlimit="2"><path fill="none" d="M0 0h1125v209.617H0z"/><path d="M-.007-.523h1125.004v198.03S893.84 48.284 648.013 137.55C293.373 266.33-.007 160.13-.007 160.13Z" fill="url(#a)"/><path d="M1124.996 197.507S893.839 48.284 648.013 137.55C388.241 231.88 161.34 200.133 58.545 176.4c107.588 24.404 317.556 46.169 565.274-84.99 239.468-126.794 501.177 15.764 501.177 15.764z" fill="#fff" fill-opacity=".4"/><path d="M1124.996 161.752S891.328 12.26 647.114 115.534c-260.702 110.25-485.775 84.6-588.569 60.866 107.588 24.404 331.596 44.827 580.078-71.953 247.205-116.182 485.924 32.569 485.924 32.569z" fill="#fff"/><defs><linearGradient id="a" x1="0" y1="0" x2="1" y2="0" gradientUnits="userSpaceOnUse" gradientTransform="matrix(1103.4636 0 0 1103.4632 16.226 147.147)"><stop offset="0" stop-color="#492976"/><stop offset=".44" stop-color="#3f3f60"/><stop offset="1" stop-color="#29722b"/></linearGradient></defs></svg>