<?xml version="1.0" encoding="UTF-8" standalone="no"?>
<!DOCTYPE svg PUBLIC "-//W3C//DTD SVG 1.1//EN" "http://www.w3.org/Graphics/SVG/1.1/DTD/svg11.dtd">
<svg width="100%" height="100%" viewBox="0 0 64 64" version="1.1" xmlns="http://www.w3.org/2000/svg" xmlns:xlink="http://www.w3.org/1999/xlink" xml:space="preserve" xmlns:serif="http://www.serif.com/" style="fill-rule:evenodd;clip-rule:evenodd;stroke-linejoin:round;stroke-miterlimit:2;">
    <g>
        <g transform="matrix(-0.0382589,-0.030392,0.030392,-0.0382589,72.8943,47.8658)">
            <path d="M818,297.1C814.4,296.8 807.9,295.4 803.6,294C797.4,292.1 794.7,290.7 791.2,287.3C788.8,284.9 786.5,283 786.2,283C785.8,283 782.5,280.2 778.9,276.7C766.2,264.7 763.3,251.1 768.5,229.1C771.3,217.6 771.3,217.6 770,201.2C768.8,184.9 768.5,183.2 765.6,175.5C763.9,170.9 763.7,168.1 764.9,166.1C766,164.4 794.955,69.244 794.055,70.944C793.655,71.644 793.955,71.644 794.755,70.844C795.555,70.144 796.155,69.244 796.155,68.844C796.255,67.344 804.055,48.644 804.555,48.644C804.855,48.644 805.255,47.544 805.255,46.244C805.655,40.244 811.455,32.944 817.555,31.144C819.655,30.544 819.855,30.644 819.355,32.544C818.955,34.344 819.155,34.644 820.855,34.044C822.555,33.544 822.655,33.744 821.755,35.544C820.855,37.144 820.855,37.644 821.855,37.644C822.555,37.644 822.355,38.144 821.355,38.944C819.155,40.544 817.555,52.444 817.555,67.144C817.555,79.944 842.3,198.6 843.3,198.4C845.7,198.1 845.4,198.9 842.8,200C840.9,200.7 841.2,200.9 844.8,200.9C861.108,197.603 868.7,228.7 870.4,229.3C871.2,229.6 871.6,229 871.5,227.7C871.3,225.3 872.6,224 875,224.1C876,224.1 872.9,225.9 875.5,225.9C877.8,226 880.6,232.9 880.6,235.1C867.067,250.39 868.1,261.2 868.7,262.7C869.7,264.8 869.7,265.7 868.7,266.9C868,267.8 866.8,269.8 866,271.3C865.2,272.9 863.6,275.3 862.3,276.6C861.1,277.9 860.4,279 860.7,279C861.7,279 854.6,284.9 852,286.2C850.6,286.8 847.7,289.1 845.5,291.1C839.5,296.6 831.4,298.4 818,297.1Z" style="fill:white;fill-rule:nonzero;"/>
        </g>
        <g transform="matrix(1.77352,0,0,1.77352,9.60884,-60.1372)">
            <path d="M6.105,63.581C8.498,67.456 12.728,69.815 17.282,69.815C24.532,69.815 30.418,63.929 30.418,56.68C30.418,52.5 28.428,48.569 25.06,46.094L23.115,48.74C25.642,50.597 27.134,53.545 27.134,56.68C27.134,62.117 22.719,66.531 17.282,66.531C13.866,66.531 10.694,64.762 8.899,61.855L6.105,63.581Z" style="fill:white;"/>
        </g>
        <g transform="matrix(0.0353361,0.0228959,-0.0228959,0.0353361,23.7697,-8.93591)">
            <path d="M551.2,1068C550,1067.5 545.2,1066.6 540.6,1066C530.9,1064.8 527,1063.4 521.7,1059.1C516.8,1055.3 512.8,1054 504.3,1053.6C486.6,1052.7 480.4,1051.8 475.5,1049.5C468,1045.9 461.3,1043.9 453.5,1043C449.7,1042.5 445.2,1041.7 443.7,1041.1C442.1,1040.5 439.1,1040 436.9,1040C433.5,1040 432.8,1040.4 431.9,1042.8C428.9,1050.6 425.3,1056.4 422.6,1058.1C415,1062.7 407.2,1059 404.4,1049.4C403.6,1046.4 402.3,1044 401.6,1044C400.9,1044 399.1,1045.4 397.5,1047C391.3,1053.5 382.3,1053.3 373,1046.4C366.5,1041.6 365.2,1038.9 366.9,1033.9C368.3,1029.9 368.3,1025.4 367,1022.9C366.1,1021.4 364.8,1021 360.6,1021C354.7,1021 349.5,1018.3 347.3,1014C339.6,999.1 335.8,989.4 335,982.3C334.6,978.2 333.6,974.1 332.8,973.4C331.3,971.8 317.6,970.4 313.7,971.4C311,972 309,976.6 309,982.2C309,984 307.7,986.4 305.5,988.9C302.4,992.3 300.4,993.3 290.7,996.4C281.2,999.4 278.6,999.9 273.8,999.3C268.3,998.8 268,998.9 263.9,1002.4C258.4,1007 253.3,1008.5 245.5,1007.4C242.2,1007 237.9,1006.7 236,1006.7C219.8,1007.1 207.6,1007.9 202.8,1008.9C195.7,1010.4 188.5,1009.2 176.6,1004.9C166.8,1001.2 160,999.8 158.3,1001.2C157.7,1001.7 156.8,1003.6 156.4,1005.3C154.4,1014.6 151.2,1017.1 139.5,1018.8C118,1022.1 104.8,1021 95.2,1015.3C91.5,1013.2 90,1012.9 86,1013.4C80,1014.2 68.8,1010.9 66.5,1007.7C61.1,999.9 71.1,996 100.5,994.5C107.2,994.1 117.2,992.3 120.9,990.9C123.1,990 123.2,989.5 122.7,985.1C121.9,978.6 123.8,975.7 128.7,976.2C132.9,976.5 135,974.2 135,969.2C135,966.4 135.9,964.8 139.4,961.4C143.9,956.9 146.5,956.1 150.2,958.1C152.6,959.4 153.5,958.6 157.5,951.9C162.1,944.3 162.2,944 161.2,941.1C160.4,938.8 160.6,937.2 162.6,933C165.4,926.9 165.6,925 163.4,920.8C162,918.1 161.5,917.9 158.7,918.5C156.9,918.8 151.4,919.4 146.4,919.7C139.3,920.1 136.7,919.8 134.9,918.7C133.2,917.7 128.3,917.1 119.1,916.6C107.8,916.1 104.7,916.3 98.9,918C95.1,919 90.8,920.8 89.3,921.9C83.4,926.6 79.5,923.1 79.5,912.9C79.5,906.3 79.6,906 83.5,901.9C85.7,899.7 89.4,897 91.7,895.9C98,893.2 110.9,884.3 116,879.1C125.9,869.1 131.8,865.3 142.4,861.9C148,860.2 156.6,857.5 161.5,855.9C172.7,852.3 181.6,851 194.5,851.1C212.5,851.1 216.9,852.1 227.8,858.6C233.1,861.8 239.3,865.6 241.6,867.1C243.9,868.7 248.6,871.1 252.2,872.5C256.3,874.1 261.2,877.2 265.2,880.7C274.6,888.9 275,889.1 279.1,888C280.9,887.4 284.8,887 287.6,887.1C293.9,887.4 294.6,886.9 295.5,882.3C295.9,880.2 296.8,877.3 297.6,875.8C299.4,872.3 299.4,868.3 297.4,862.9C295.5,857.5 296.2,851.1 299.1,846.3C300.3,844.4 302.8,839.8 304.6,836.1C307.9,829.4 307.9,829.4 307.3,816.9C306.6,803 308,796.1 312.5,789.9C318.1,782.3 319.3,778.2 320.2,764.5C321.3,747.5 321.4,748.8 319.6,743.6C318.7,741 318,736.5 318,733.5C318,728.2 317.8,727.7 312.5,722C305.2,714.1 303.3,708 305,697.8C306.9,686.5 305.1,676.8 298.8,665.5C289.5,648.9 285.9,639.9 281.7,622.5C280.9,619.2 278.7,612.9 276.9,608.6C273.5,600.7 273.5,600.7 265.1,596.1C251.4,588.6 228.1,564.4 215.9,544.9C213,540.3 209.5,535.2 208.2,533.6C202.4,526.4 199.5,518.1 197.9,504C197,495.8 196.4,493.6 193,488C188.6,480.6 187.5,478.1 186,472.5C184.6,466.8 177.8,460.1 168.4,455C157.6,449.1 143.6,439.7 137.7,434.4C132.8,430 130.4,429 115.7,425.6C106.9,423.6 95.8,416.1 89.8,408.2C82.9,399 76.8,393 72,390.5C66.6,387.8 54.4,374.6 48.3,365C36.2,346 34,325.4 41.3,300.2C46.2,283.2 56.3,277.6 63.4,287.8C66.6,292.5 67.6,295.2 68.5,301.7C69.2,306.9 69.2,306.9 74.1,308.5C77.2,309.6 79.9,311.3 81.2,313.1C83.6,316.3 90.7,320 94.5,320C96.5,320 97.3,319.2 98.6,316C99.8,313.1 101.4,311.4 104.8,309.5C110.3,306.4 123.3,302 127.1,302C130.6,302 138,296.5 138,293.9C138,290.6 135.3,286.4 131,283C127.7,280.4 127,279.2 127,276.4C127,273.5 126.4,272.6 123.8,271.2C118,268 116.8,266.3 117.5,261.7C117.9,258.9 117.6,256.3 116.6,253.8C114.6,249.1 114.6,244.6 116.5,243C118.2,241.6 124,240.2 131.5,239.3C142,238.2 164,248.3 174.9,259.1C179.1,263.3 185,271.2 185,272.5C185,272.9 188.2,278.4 192.1,284.6C196,290.9 202.3,302.7 206.2,310.8C212.7,324.3 221,337.6 228.1,345.7C231.8,350 238.4,361.6 240,366.5C240.7,368.7 242.7,373 244.5,376C246.3,379 250.8,387.6 254.4,395.1C261.4,409.6 262.8,411.4 267.5,412.6C269.2,413 275.3,415.7 281.2,418.7C290.3,423.2 293.9,425.7 303.7,434.7C327.6,456.4 333.1,462.6 338.8,473.5C342.3,480.3 345,484.2 346.9,485.3C351.4,488 357.5,487.4 367,483.4C371.7,481.4 378.8,478.5 382.8,477C386.8,475.4 391.5,473.1 393.3,471.7C399.2,467.2 415.5,451.8 415.8,450.4C416,449.6 413.2,447.6 409,445.5C399.7,440.8 394.3,435.2 388.6,424.1C386.1,419.2 381.3,411.5 378,407.1C374.8,402.7 370.6,396.3 368.9,392.8C365.6,386.2 365.5,385.6 363.4,356.5C363.1,352.1 362.7,347.5 362.4,346.3C361.7,342.9 356.2,337.1 351.1,334.5C343.4,330.6 335.6,321.7 331.7,312.4C328.8,305.5 327.1,303.1 320.4,296.4C310.5,286.6 307.2,281.6 303.6,270.9C302,266.3 299.6,261 298.3,259.3C297,257.5 289.8,250.8 282.3,244.4C270.1,233.9 268.5,232.1 265.9,226.4C264.3,222.9 262.5,217.6 261.9,214.7C258.8,199 251.1,177.8 246.5,171.8C241.4,165.3 238.1,155.5 236.9,143.2C236.1,135.5 235.1,131.2 233.4,127.8C230.7,122.6 230.5,119.3 232.1,112.3C233.7,105.4 236.8,99.5 239.5,98C242.4,96.4 245.3,97.5 254.1,103.1C260.9,107.5 261.8,110.5 257.5,114.4C253.8,117.9 254.2,120.8 258.6,121.6C261.5,122.1 262.6,121.8 264.8,119.7C269.3,115.5 277.4,113.2 286.2,113.8C295.8,114.4 302.3,112.9 313.2,107.8C319.8,104.7 322.2,103 323,100.9C323.7,99.4 325.7,97.1 327.6,95.8C331.5,93.1 331.7,92.3 329,87.3C327.9,85.2 327,83 327,82.3C327,81.6 325.5,79.3 323.7,77.3C319.3,72.3 316,66.7 316,64.3C316,61.9 317.9,60 320.3,60C322.2,60 334.6,66.5 335.5,68C336.2,69.2 352.6,83 356.8,85.9C358.7,87.2 362.2,91.2 364.6,94.9C367,98.5 372.1,105.8 375.8,111.1C382.8,121.1 388.1,131 397.5,151.8C402.4,162.5 403.4,165.8 405.6,178.7C408,193.2 408,193.5 406.3,201.6C404.7,209.3 404.7,210.3 406.4,219.6C408.7,232.4 410.4,260.5 409.1,264C408.6,265.4 407.9,267.8 407.5,269.4C407.2,271 404.1,275.1 400.8,278.6C395.1,284.6 394.4,285 390.2,285C385.7,285 385.7,285 386.5,289.2C387,291.6 387.4,295.8 387.4,298.5C387.5,303.2 387.6,303.5 390,303.2C391.3,303.1 394.7,301.7 397.5,300.1C402.4,297.4 403.5,296.1 412,282.5C417.3,274.1 423.5,271 431.2,273.1C436.2,274.4 446.9,284.2 450.8,291C457.1,301.9 462.1,308.3 473.6,319.6C485,330.9 486.1,332.3 490.5,341.6C493,347 496.3,355.8 497.7,361C499.9,369.4 500.2,371.7 499.6,380.5C499.1,389.4 499.2,390.9 501,393.7C502.9,396.9 502.9,396.9 511.2,396.8C517,396.7 522.3,397.3 528.9,399C538.3,401.3 538.3,401.3 545.9,399.2C550.1,398.1 558.1,396.7 563.8,396C575.3,394.8 577,394.3 577,392.6C577,392 575.6,388.6 573.9,385C572.2,381.4 570.2,375.7 569.4,372.3C568.6,368.8 567.5,364.9 567,363.5C566.5,362.1 565.6,358.6 565.1,355.7C564.6,352.8 563.3,346 562.1,340.6C560.2,331.5 560.1,329.4 561,317.1C561.5,309.5 562.8,300.5 563.9,296.7C565.2,292.2 565.6,289.1 565.1,287.6C564.6,286.4 561.2,282.8 557.6,279.6C550.4,273.3 547.5,268.6 544.1,257.5C542.9,253.7 540.9,247.4 539.7,243.6C538.5,239.8 534,229.4 529.5,220.6C521.5,204.6 521.5,204.5 515.3,200.4C511.8,198.2 507.9,195.3 506.6,194.1C502.6,190.3 499,180.9 497.9,171.3C496.7,160.1 495.6,156.3 491.4,146.9C489.6,142.8 487.2,135.6 486.1,130.9C483.8,121 481,100 481,92.6C481,79.9 487.4,47.5 490.5,44C494.5,39.6 498.9,42.5 505.3,53.8C508.1,58.8 508.5,59.1 511.2,58.6C512.8,58.3 516.2,56.4 518.7,54.5C524.3,50.2 527,49.4 531.1,50.9C532.9,51.5 537.3,52 541,52C544.6,52 551.4,52.9 556,54.1C563,55.9 564.9,56 567.9,55C570.9,54 572.6,54.1 577.4,55.5C584.8,57.7 586.2,56.6 582.9,51.3C581.7,49.2 579.1,46.2 577.3,44.7C572.1,40.2 573.3,36 579.8,36C582,36 584.3,35.1 586.2,33.5C587.8,32.1 590.4,31 592,31C595.2,31 602.9,36.6 607.7,42.5C609.4,44.5 613.2,47.8 616.3,49.8C630,58.8 640.9,76.3 645.9,97.5C650.9,118.3 651.7,121.3 653.9,128.5C656.9,138.2 660.1,160.7 660.1,171.5C660.1,176.5 659.3,185.2 658.4,191C657.1,198.7 656.6,209 656.4,230C656.2,251.4 655.7,260.2 654.6,265.5C651.8,278 650.8,286.3 651.2,295.6C651.5,304.4 651.6,305 655.5,310.4C662.2,319.9 663.3,322.1 664.1,327.3C664.7,330.7 665.8,333.3 667.7,335.2C673.2,341 671.6,356.7 665.1,359.2C663.7,359.8 661.9,360.5 661.2,360.9C659.6,361.6 655.3,373.5 654,380.4C653,385.6 646.5,396.4 640.3,403.1C635,408.7 636.1,409.9 649.1,413C654.8,414.4 657.6,414.6 660.6,413.9C667.6,412.2 687.1,411.6 694.3,412.9C703.5,414.5 718,421.5 727,428.7C731.1,432 737,436.3 740,438.2C745.5,441.6 748.1,444.3 754.3,453C758.4,458.6 761.2,460 770.9,461.1C785,462.8 796.1,465.9 803.3,470.1C808.8,473.4 811.3,475.8 816.9,483.3C820.6,488.4 824.8,494.7 826.1,497.4C828.3,501.9 837.4,510.9 844.4,515.5C851,519.9 864.2,545.3 869,563.1C870.7,569.3 872.3,574.7 872.6,575.2C873.4,576.4 877,604.7 877,609.6C877,615.9 873.3,628.9 870.5,632.6C867.9,636 867.9,636 867.8,663.2C867.6,690.5 867.6,690.5 870.8,700.1C876.8,717.9 878.2,729.4 876,743C875.5,746 874.6,753.8 874,760.2C873,770.8 873.1,772.9 874.9,781.7C876.4,789.2 877,796.2 877.2,811C877.5,829.3 877.4,830.9 875.1,837.5C873.8,841.4 870.6,848.6 867.9,853.5C861.5,865.5 857,878.2 857,884.1C857,888.2 857.5,889.5 861,893.5C868.3,901.9 868.5,902.8 868.4,919.5C868.4,932.3 868,936.1 865.7,945.2C860.7,965.3 854.3,973.9 842.3,976.4C840.5,976.8 836.2,979 832.7,981.3C826.5,985.5 823.9,987.5 809.5,999.8C801.5,1006.7 797.6,1008.2 784.5,1010C780.6,1010.5 774,1012.2 770,1013.9C762.4,1016.8 748.4,1019 736.5,1019C732.4,1019 730.5,1019.5 728.3,1021.3C724.9,1024.1 715.4,1029 713.4,1029C712.6,1029 710.1,1028.1 707.9,1026.9C704.1,1025 703.7,1025 701.4,1026.5C700.1,1027.3 699,1029 699,1030.1C699,1033 693.7,1038 690.6,1038C689.2,1038 686.5,1039.3 684.7,1041C680.8,1044.4 672.9,1048 669.4,1048C668,1048 665.6,1048.7 664,1049.5C660,1051.6 656.6,1050.1 654,1045C652.4,1041.8 651.4,1040.9 649.7,1041.2C647.7,1041.5 647.5,1042.1 647.5,1047.8C647.5,1055.3 646.4,1056.5 639,1057.5C633.4,1058.3 629.7,1057.6 623.4,1054.9C619.6,1053.2 617.1,1053 603.1,1053.2C587.2,1053.5 587.2,1053.5 582.8,1056.8C580.5,1058.6 574.5,1062.1 569.6,1064.5C560.6,1069 556,1069.9 551.2,1068Z" style="fill:white;fill-rule:nonzero;"/>
        </g>
        <g transform="matrix(0.621958,-0.755815,0.893433,0.735204,-35.8779,27.0811)">
            <rect x="6.908" y="48.337" width="15.02" height="5.09" style="fill:white;"/>
        </g>
        <g transform="matrix(0.601743,0.013706,-0.0263473,1.15674,4.19771,-1.30933)">
            <rect x="6.908" y="48.337" width="15.02" height="5.09" style="fill:white;"/>
        </g>
    </g>
</svg>
