<?xml version="1.0" encoding="UTF-8" standalone="no"?>
<!DOCTYPE svg PUBLIC "-//W3C//DTD SVG 1.1//EN" "http://www.w3.org/Graphics/SVG/1.1/DTD/svg11.dtd">
<svg width="100%" height="100%" viewBox="0 0 1004 1123" version="1.1" xmlns="http://www.w3.org/2000/svg" xmlns:xlink="http://www.w3.org/1999/xlink" xml:space="preserve" xmlns:serif="http://www.serif.com/" style="fill-rule:evenodd;clip-rule:evenodd;stroke-linejoin:round;stroke-miterlimit:2;">
    <g id="Ebene1" transform="matrix(1,0,0,1,-1251.97,-679.134)">
        <g transform="matrix(1.20868,0,0,1.20868,-702.21,-448.959)">
            <path d="M2015.18,1388.76C2055.17,1391.16 2220.23,1400.19 2222.87,1634.59C2223.51,1691.18 2199.41,1726.86 2174.76,1754.51C2119.04,1817.02 2036.63,1816.92 1993.14,1815.16C1945.23,1813.22 1795.05,1791.49 1788,1637.99C1781.96,1506.62 1841.88,1447.94 1868.53,1431.14C1907.52,1406.56 1970.55,1386.08 2015.18,1388.76Z" style="fill:rgb(77,41,131);"/>
        </g>
        <g transform="matrix(0.696233,-0.79708,0.868407,0.758536,-1066.17,1873.24)">
            <path d="M2015.18,1388.76C2055.17,1391.16 2220.23,1400.19 2222.87,1634.59C2223.51,1691.18 2199.41,1726.86 2174.76,1754.51C2119.04,1817.02 2036.63,1816.92 1993.14,1815.16C1945.23,1813.22 1795.05,1791.49 1788,1637.99C1781.96,1506.62 1841.88,1447.94 1868.53,1431.14C1907.52,1406.56 1970.55,1386.08 2015.18,1388.76Z" style="fill:rgb(228,223,237);"/>
        </g>
        <g transform="matrix(1.1398,-0.402183,0.402183,1.1398,-1190.65,504.375)">
            <path d="M2001.94,1711.34C1972.08,1708.83 1914.2,1703.13 1859.81,1642.67C1812.09,1589.63 1860.2,1553.68 1892.14,1567.08C1892.14,1567.08 1877.51,1415.26 2003.34,1409.96L2004.08,1409.99C2129.12,1415.87 2114.54,1567.08 2114.54,1567.08C2146.49,1553.68 2194.6,1589.63 2146.88,1642.67C2091.62,1704.09 2032.77,1709 2003.34,1711.45L2001.94,1711.34Z" style="fill:rgb(43,121,35);"/>
        </g>
        <g transform="matrix(1.1398,-0.402183,0.402183,1.1398,-1190.65,504.375)">
            <path d="M1941.57,1429C1941.57,1429 1928.67,1309.24 1908.42,1199.58C1893.52,1118.95 1878.26,1043.18 1873.88,1027.52C1866.83,1002.25 1856.34,963.753 1869.49,952.606C1880.52,943.264 1901.74,954.817 1917.62,1004.4C1924.36,1025.43 1935.06,1100.42 1940.89,1095.33C1946.71,1090.25 1955.67,1004.46 1956.49,972.584C1956.75,962.297 1953.31,935.594 1965.79,931.238C1983.45,925.075 1998.23,953.386 1997.92,986.419C1997.31,1050.44 1963.94,1121.51 1968.69,1159.49C1973.44,1197.47 2028,1220.2 2006.24,1419.01C1998.03,1433.89 1984.18,1422.99 1984.18,1422.99C1984.18,1422.99 1978.01,1237.24 1955.81,1240.16C1944.26,1241.67 1967.82,1385.98 1970.53,1421.25C1973.24,1456.51 1941.57,1429 1941.57,1429Z" style="fill:rgb(43,121,35);"/>
        </g>
        <g transform="matrix(1.1398,-0.402183,0.402183,1.1398,-1108.8,476.491)">
            <ellipse cx="1967.31" cy="1522.05" rx="10.851" ry="35.265" style="fill:white;"/>
        </g>
        <g transform="matrix(1.1398,-0.402183,0.402183,1.1398,-1187.97,504.429)">
            <ellipse cx="1967.31" cy="1522.05" rx="10.851" ry="35.265" style="fill:white;"/>
        </g>
        <g transform="matrix(1.39288,-0.491484,0.576064,1.63258,-2394.79,269.068)">
            <path d="M2430.89,1463.49C2433.74,1465.2 2429.06,1470.45 2427.79,1473.76C2416.99,1501.99 2389.63,1522.05 2357.63,1522.05C2347.85,1522.05 2335.93,1520.18 2327.75,1516.78C2319.32,1513.27 2314.67,1508.13 2307.85,1501.72C2297.72,1492.23 2288.66,1483.01 2285.02,1469.18C2284.79,1468.31 2282.95,1465.4 2285.45,1463.71C2288.49,1461.64 2311.53,1464.87 2311.53,1464.87C2318.22,1465.66 2384.19,1468.81 2410.92,1463.77C2417.45,1462.54 2428.05,1461.78 2430.89,1463.49Z" style="fill:white;"/>
        </g>
        <g transform="matrix(1.1398,-0.402183,0.402183,1.1398,-1190.65,504.375)">
            <path d="M2039.96,1419.67L2057.32,1090C2057.32,1090 2063.69,1048.71 2095.57,1048.71C2127.44,1048.71 2140.28,1076.32 2135.19,1099.71C2130.1,1123.11 2067.76,1409.53 2068.44,1439.93C2069.12,1470.33 2039.96,1419.67 2039.96,1419.67ZM2112.74,933.298C2128.77,934.544 2160.48,941.504 2156.56,986.377C2152.63,1031.25 2124.58,1029.38 2105.26,1026.27C2085.94,1023.15 2064.75,1008.81 2063.51,977.028C2062.26,945.243 2096.72,932.051 2112.74,933.298Z" style="fill:rgb(43,121,35);"/>
        </g>
        <g transform="matrix(0.582978,1.05879,-1.05879,0.582978,2526.08,-2035.84)">
            <path d="M2217.79,1660.31C2225.91,1630.67 2222.71,1586.3 2227.88,1567.71C2230.92,1556.78 2240.91,1549.44 2252.98,1551.03C2258.87,1551.81 2269.37,1559.28 2267.69,1576.71C2263.31,1622.07 2254.77,1661.87 2246.89,1689.26C2243.43,1701.28 2232.22,1722.92 2260,1724.4C2271.79,1725.03 2286.37,1723.81 2291.04,1730.59C2292.61,1732.88 2294.25,1739.31 2295.12,1738.89C2296.78,1738.07 2297.04,1727.7 2298.63,1724.4C2302.13,1717.12 2313.67,1674.91 2371.93,1676.12C2401.18,1676.74 2409.14,1685.81 2410.34,1697.1C2411.68,1709.64 2385.38,1760.84 2385.38,1760.84C2385.38,1760.84 2374.84,1787.54 2397.59,1790.81C2406.16,1792.04 2405.83,1802.96 2397.59,1806.43C2389.34,1809.9 2360.1,1797.54 2358.8,1784.08C2357.5,1770.63 2330.61,1801.55 2309.48,1771.28C2307.16,1767.96 2302.02,1756.79 2297.4,1757.05C2294.92,1757.18 2292.34,1766.91 2291.01,1768.78C2287.09,1774.3 2278.74,1776.09 2271.28,1771.28C2254.27,1739.32 2203.01,1764.09 2189.63,1741.4C2182.41,1729.14 2209.47,1690.69 2217.79,1660.31ZM2327.25,1737.94C2327.25,1737.94 2329.26,1704.48 2373.92,1699.5C2377.71,1699.07 2383.26,1704.13 2383.61,1710.18C2384.22,1720.4 2375.07,1737.54 2367.26,1745.5C2353.13,1759.87 2332.37,1756.83 2327.25,1737.94Z" style="fill:rgb(43,121,35);"/>
        </g>
        <g transform="matrix(0.976434,0.712371,-0.712371,0.976434,1405.97,-1704.93)">
            <path d="M1800.15,1731.74C1793.12,1741.34 1780.81,1748.84 1768.32,1752.04C1744.99,1758.01 1717.73,1756.75 1710.79,1747.1C1702.92,1761.9 1674.23,1768.94 1674.23,1768.94C1674.23,1768.94 1654.82,1800.92 1632.35,1774.06C1625.84,1736.63 1615.69,1683.55 1600.34,1650.9C1576.21,1652.07 1576.06,1659.67 1555.85,1659.59C1550.95,1658.67 1541.69,1654.77 1538.61,1648.17C1534.65,1639.67 1538.35,1627.5 1547.71,1619.98C1592.2,1599.76 1623.11,1588.75 1653.67,1587.55C1687.35,1586.23 1691.9,1607.52 1675.75,1621.07C1658.93,1635.17 1641.57,1639.51 1641.57,1639.51C1641.57,1639.51 1657.85,1720.35 1658.39,1736.08C1658.93,1751.82 1689.08,1733.53 1694.5,1725.14C1699.93,1716.74 1694.1,1655.98 1743.69,1638.77C1795.53,1620.78 1794.82,1656.47 1799.12,1671.04C1800.72,1676.46 1804.88,1693.59 1807.39,1705.01C1810.79,1707.1 1813.17,1720.59 1828.68,1713.14C1839.54,1714.76 1836.72,1722.33 1834.01,1728.26C1828.43,1731.16 1806.99,1731.18 1800.15,1731.74ZM1752.89,1660.85C1757.5,1658.67 1768.3,1657.02 1771.65,1664.54C1776.27,1674.92 1778.63,1701.68 1779.38,1707.72C1776.25,1712.73 1772.97,1716.97 1767.24,1720.16C1749.3,1730.12 1729.63,1725.93 1723.91,1708.77C1718.08,1691.27 1733.08,1669.56 1752.89,1660.85Z" style="fill:rgb(43,121,35);"/>
        </g>
    </g>
</svg>
