<svg xmlns="http://www.w3.org/2000/svg" xml:space="preserve" style="fill-rule:evenodd;clip-rule:evenodd;stroke-linejoin:round;stroke-miterlimit:2" viewBox="0 0 1024 600"><path d="M-.113 396.018c83.116-90.699 229.373-155.476 511.897-155.476s440.515 77.489 511.896 155.476c-342.576-133.711-683.823-134.216-1023.793 0Z" style="fill:url(#a)" transform="translate(0 113.673)"/><path d="M221.13 406.78c3.42 3.491 7.04 7.027 9.485 11.298 9.405 16.43 2.965 34.696-1.188 51.853-1.876 7.744-6.766 18.629-4.334 26.665 2.352 7.772 13.34 10.19 20.073 11.959 7.607 1.999 15.32 3.233 23.003 4.867 12.563 2.673 25.365 6.367 35.136-4.9 5.569-6.422 1.72-11.848.568-19.077-.844-5.296.5-11.294 2.607-16.17.219-.507-.18 1.09-.277 1.634-.137.76-.29 1.518-.439 2.277-.492 2.493-.938 4.994-1.402 7.492-1.376 7.393 3.022 12.97 3.316 20.182.635 15.611 6.975 29.695 11.7 44.401 2.888 8.99 3.658 17.687 12.783 22.321 10.253 5.206 23.283 10.453 34.87 10.456 20.513.006 45.661-16.823 46.53-38.779.244-6.136-2.947-13.744-7.467-18.016-2.683-2.536-8.102-2.068-8.317-6.446-.293-5.965 3.69-11.057 5.676-16.384 1.924-5.164 1.974-11.65.452-16.945-2.285-7.947-7.374-15.337-12.444-21.76-3.853-4.882-8.777-9.616-9.63-16.058-.916-6.932 2.587-13.807 3.405-20.613 2.582-21.48 5.46-47.081-9.247-65.03" style="fill:#fff;stroke-width:5;stroke-dasharray:none;stroke:#000;stroke-linecap:round"/><path d="M637.23 361.238c.626 2.026 1.97 4.36 1.912 6.5-.167 6.278-5.003 12.762-6.427 18.91-1.43 6.174-1.075 12.745-1.973 19.033-1.302 9.108-3.898 17.912-2.912 27.212.777 7.334 4.194 12.698 7.268 19.173 2.148 4.525 3.3 8.81 6.496 12.828 3.027 3.808 10.607 6.7 11.64 11.447 1.582 7.265-2.265 15.247-3.815 22.262-.93 4.206-1.164 9.157 2.133 12.419 9.676 9.575 28.909 4.552 33.317-8.016 2.465-7.027-.636-14.493-1.62-21.53-.391-2.806 1.332-10.593 5.662-9.726.26.052.41 2.988.436 3.404.246 3.91.148 7.819.449 11.731.903 11.771 12.559 19.363 24.011 16.482 17.134-4.31 8.89-27.34 5.148-38.666-1.104-3.34-3.83-8.54-2.401-12.176 1.25-3.182 9.74-2.206 12.55-2.968 3.998-1.083 5.952-4.038 8.92-6.607 3.172-2.747 6.806-4.914 9.968-7.687 8.429-7.396 4.49-16.023 4.9-25.562.193-4.48 1.794-8.73 2.381-13.158.762-5.74.163-11.206-1.387-16.773" style="fill:#fff;stroke:#1a1a1a;stroke-width:5;stroke-linecap:round;stroke-dasharray:none"/><path d="M84.153 617.827c-4.512-27.382-1.058-50.39.546-77.618 2.163-36.711.206-47.581 9.131-84.868 16.236-67.831 31.533-139.612 79.683-192.606 15.797-17.386 34.826-40.476 59.866-43.473.357-.042 3.358-.401 3.438-.212 5.61 13.325 12.908 22.789 21.695 34.268 6.536 8.539 14.827 15.701 19.622 25.48 3.963 8.084 4.149 18.118 9.036 25.708 4.594 7.136 41.552 41.446 49.012 45.788 13.607 7.921 30.416-19.865 35.813-27.578 1.012-1.446 10.237-11.941 11.348-11.017 47.921 39.838 19.178 53.369 34.104 103.973 5.532 18.758 33.284 31.021 39.473 47.561.117.312-3.009 2.932-3.43 3.336-7.164 6.89-13.049 15.007-17.64 23.83-8.3 15.952 6.005 22.358-8.941 32.066-6.842 4.443-11.871-13.048-17.433-5.644-12.273 16.34 11.778 34.498.141 54.275-6.346 10.786-19.952 16.845-30.528 22.549-14.754 7.959-33.17 20.111-50.235 21.57-11.51.984-23.973-3.523-35.272-5.341-21.997-3.539-44.628-6.575-66.932-6.527-18.117.04-33.9-1.347-51.64-3.643-2.957-.383-2.497 5.448-4.175 7.913-3.781 5.556-9.269 9.78-15.233 12.784-16.066 8.091-50.354 11.583-67.633 5.565" style="fill:#bf2541" transform="matrix(.71471 -.09567 .09567 .71471 35.194 -5.887)"/><path d="M430.577 279.657c-.75.266-1.546.444-2.205.905-2.91 1.546-5.243 2.505-7.788 4.375l-.555.5c-1.27.656-1.915 1.58-3.007 2.361l-14.981 13.426c-1.003 1.412-.915 3.172-2.187 5.256-1.328 1.391-2.462 2.928-3.507 4.563-1.053.986-.247 1.865.688 2.165-.268 2.022-2.484 2.695-2.57 4.767-.282 2.148 2.772 2.169 4.027 1.219 1.966-.365 4.011-.645 5.782-1.543 2.654-.57 1.938 2.606 2.793 4.074 1.065 1.897 3.52 1.429 5.303 1.973 1.872-.134 3.824-.578 5.454-1.511 1.367-1.709 2.608-3.544 3.81-5.357.69-1.993 2.661-4.252 4.95-3.071.956 1.627.642 3.725-.347 5.292-.46 1.448-2.291 4.879.591 4.669 2.275.101 3.862-1.707 5.241-3.242 1.005-1.606 2.212-3.059 3.164-4.648 1.118-1.713 1.961-3.592 1.912-5.685.295-1.947-.53-3.801-.046-5.726.236-1.814.467-3.773 1.767-5.076.715-.341-.179-.062-.371.182" style="fill:#fff;stroke:#000;stroke-width:5;stroke-linecap:round;stroke-linejoin:miter;stroke-dasharray:none;stroke-opacity:1"/><path d="M662.801 145.363c-2.436-7.726-1.539-15.906-2.732-23.824.052-5.767-1.05-11.732 1.132-17.291 2.39-5.974 1.687-12.96 5.81-18.244 2.737-4.994 5.952-9.761 9.877-13.827 4.444-3.764 8.7-7.547 12.072-12.336 3.526-4.646 8.88-6.795 13.505-9.957 3.981-1.974 8.006-3.015 12.475-3.81 7.313-2.049 15.08-2.801 22.62-1.432 6.01 1.962 12.004 4.124 18.163 6.048 4.129 2.378 7.992 5.557 10.683 9.451 2.422 4.241 5.316 8.519 4.188 13.79-.454 5.7-1.668 11.348-2.284 17.071-1.507 6.167-3.903 12.361-2.867 18.846.331 7.592-.19 15.234-.202 22.837-1.278 5.317-3.514 8.93-5.643 13.625-3.782 5.912-9.364 10.274-14.894 14.472-4.078 4.466-9.247 7.678-14.591 10.34-5.116 2.213-10.15 4.367-15.151 6.914-2.171 2.01-5.235 2.71-7.413 4.999-3.966 1.847-8.751 1.156-12.161-1.411-3.304-2.514-6.583-5.438-10.347-7.297-3.957-3.125-9.125-4.901-11.669-9.614-3.773-5.417-5.877-11.88-9.339-17.374-.171-.86-.978-1.075-1.232-1.976z" style="fill:#fff;stroke:#000;stroke-width:5;stroke-linecap:butt;stroke-linejoin:miter;stroke-opacity:1;stroke-dasharray:none"/><path d="M667.057 151.833c-.594-5.335.168-12.486.313-17.858a90.076 90.076 0 0 0 1.949-17.072c1.049-3.855 1.246-7.845 1.926-11.751.35-3.727 1.248-7.29 3.023-10.594 1.569-3.859 5.097-6.075 8.645-7.849 4.002-1.482 7.477-3.9 11.699-4.914 3.838-.395 7.583.344 11.414.359 4.24-.399 8.373.546 12.526.862 4.261-.287 6.423 3.973 10.52 4.399 3.635 1.765 7.202 4.422 8.752 8.25a59.652 59.652 0 0 1 3.476 11.321c1.336 7.65 2.778 15.349 2.338 23.16.86 5.147-.655 10.23-1.164 15.339-1.121 5.048-1.096 10.456-3.57 15.116-.756 1.726-2.11 5.703-2.599 6.45" style="fill:none;stroke:#000;stroke-width:5;stroke-linecap:round;stroke-linejoin:miter;stroke-dasharray:none;stroke-opacity:1"/><path d="M591.323 281.138c-.347 2.11-.042 4.282-.665 6.357.265 2.085-.97 3.624-2.237 5.09-.81 1.728-1.738 3.425-2.046 5.338.15 1.94.364 3.874.71 5.797.479 1.655.943 3.775 2.966 4.013 2.1.218 3.805-1.147 5.005-2.745 1.214-1.69.483-4.011.48-5.977-.527-1.887-.608-3.832-.602-5.73 1.506 1.183 2.284 2.3 3.8 3.022 1.489 1.498 3.18 3.203 3.237 5.443.066 2.13-.508 4.871-2.724 5.724-.955 1.233-3.781.693-2.357 2.877.762.917 1.287 2.54 2.985 3.173 2.095.508 4.342.616 6.366-.285 1.983-.093 3.26-1.504 4.322-2.993.414-1.65.427-3.384.774-5.06.264-2.007 2.2-3.305 3.266-4.917 1.216-1.504 2.998-2.666 3.737-4.532.961-1.755 1.547-3.758 1.562-5.757-.255-2.166-.982-4.234-1.592-6.3-.624-1.62-1.003-2.499-1.514-3.89-.093-.254-1.168-1.108-1.465-1.698" style="fill:#fff;stroke:#000;stroke-width:5;stroke-linecap:round;stroke-linejoin:miter;stroke-dasharray:none;stroke-opacity:1"/><path d="M757.153 386.577c6.019-9.374 12.624-17.318 22.514-22.807 10.034-5.568 18.745-8.135 27.677-15.693 2.121-1.795 7.202-7.669 9.918-7.739 12.739-.324 20.152 13.874 25.345 23.397 8.577 15.729 21.026 34.853 40.184 38.19 20.704 3.606 32.107-13.193 48.767-22.35 12.732-6.998 33.997-7.343 48.093-4.883 8.531 1.489 13.681 11.49 21.059 15.611 7.51 4.189 15.78 7.085 22.06 13.176 26.94 26.103 36.76 83.522 35.07 119.139-1.02 21.337-2.56 41.899-16.24 59.298-8.3 10.557-18.75 18.987-28.28 28.332-1.37 1.342-7.43 9.806-9.15 9.965-.71.066-.82-1.173-1.23-1.767-5.828-8.602-8.698-19.178-13.354-28.455-5.022-10.007-8.984-20.169-15.688-29.224-1.321-1.784-8.015-8.441-7.944-10.674.24-7.509 22.108-32.055 7.858-33.644-27.882-3.11-22.273 30.416-23.524 47.193-1.038 13.91-2.101 27.808-4.797 41.514-1.735 8.827-8.928 51.28-13.385 56.161-4.073 4.46-24.082 2.397-29.989 2.663-19.97.899-73.193 6.405-90.521-1.079-7.663-3.309-8.199-13.831-14.747-18.924-16.02-12.46-32.102-24.677-48.449-36.733-8.269-6.098-17.925-12.124-17.636-23.669.348-13.903 14.227-24.438 21.516-35.187 11.649-17.179 20.534-39.738 28.109-59.078.779-1.988-2.639 3.366-3.811 5.152-1.892 2.885-4.39 9.261-7.401 10.913-1.808.992-10.605-7.072-12.019-8.373-11.536-10.614-1.876-35.322.238-48.627 4.88-30.721-15.977-43.85-.243-61.798Z" style="fill:#bf2541" transform="matrix(.71471 -.09567 .09567 .71471 35.194 -5.887)"/><path d="M786.431 310.71c-1.28 1.45-3.011 2.42-4.733 3.238-1.85 1.016-4.002 1.427-5.497 3.032-1.427 1.137-3.139 2.005-4.503 3.29-1.492 1.21-3.21 1.87-5.043 1.721-1.787-.099-5.32-.036-4.96 2.543.65 2.127 2.256 1.551 3.769 3.221 1.366 1.334 1.226 3.561-.953 3.894-1.612.356-2.267 2.775-.746 3.725 1.333 1.667 3.81 1.21 5.12 2.871.63 2.254-2.316 3-4.04 2.454-2.782.36-.173 3.548 1.569 3.475 1.718 1.51 4.072 1.71 6.173 2.306 2.06.08 4.101.315 6.157.041 1.909-.358 3.405-1.55 5.153-2.318 1.936-.691 3.874-1.378 5.54-2.617 1.703-.95 3.703-1.37 5.134-2.77 1.472-1.03 2.644-2.402 4.181-3.364.55-.51.684-.608.348-.97" style="fill:#fff;stroke:#000;stroke-width:5;stroke-linecap:round;stroke-linejoin:miter;stroke-dasharray:none;stroke-opacity:1"/><path d="m472.12 189.232-3.04-4.367-6.78-13.932 1.115-21.254 10.83-8.853 31.964-.531 21.902 19.748 10.616 16.53-2.767 12.63-12.169 11.605-16.276 7.59-12.106 1.692-9.342-6.902-10.765-11.438z" style="fill:#fff;stroke:none;stroke-width:1px;stroke-linecap:butt;stroke-linejoin:miter;stroke-opacity:1"/><path d="M537.654 182.56c-.88 2.958-2.688 5.463-3.983 8.226-1.112 2.412-3.498 3.858-5.376 5.623a104.536 104.536 0 0 1-6.51 5.355c-2.117 1.687-4.433 2.936-6.639 4.48-2.2.846-4.382 1.91-6.786 1.942-2.54.407-5.139.49-7.771.678-1.93.762-4.17.465-6.137-.08-2.453-.38-4.564-1.722-6.577-3.057-1.693-1.535-3.205-2.86-5.091-4.2-1.674-1.761-3.116-3.807-4.061-5.749-.803-1.95-2.218-3.708-3.383-5.393-1.365-1.196-3.59-2.636-5.166-2.805" style="fill:none;stroke:#000;stroke-width:5;stroke-linecap:round;stroke-linejoin:miter;stroke-opacity:1;stroke-dasharray:none"/><path d="M454.153 455.577c5.23-4.494 22.853-13.43 25.274-16.797 5.768-8.022 3.172-19.437 11.066-27.367 5.995-6.021 15.43-5.631 21.152-11.196 8.477-8.242-1.257-25.632 17.549-31.865 5.238-1.736 9.432 1.298 14.178.318 2.951-.609.979-13.142 11.856-13.801 10.247-.62 15.878 16.119 19.962 22.29 9.252 13.981 29.39 20.29 42.085 34.931 5.254 6.058 16.384 20.454 16.512 20.372 24.77-16.031 43.939-44.723 51.369-73.061 1.642-6.263.763-29.375 2.187-31.97.631-1.149 1.677 2.016 2.558 2.986 2.641 2.913 5.11 5.846 7.478 8.992 6.48 8.61 12.459 18.727 21.653 24.753 9.06 5.939 22.126 9.595 29.24 17.93 9.421 11.037 16.012 79.059 14.154 93.747-1.143 9.038-8.319 5.374-14.448 4.73-.356-.038.048.714.07 1.071.158 2.672.116 5.317-.025 7.987-.095 1.793 1.151 6.049-.508 5.363-20.509-8.481-21.309-6.06-41.647-.811-1.488.384-2.119-10.52-2.649-11.544-1.78-3.447-7.515-5.491-9.797-1.047-8.91 17.348-1.956 36.567-3.789 55.162-4.529 45.944-8.487 115.521-42.729 149.08-5.3 5.194-14.161 5.48-20.415 9.657-7.177 4.794-13.335 17.1-21.679 19.499-10.776 3.098-24.94-14.004-31.62-13.444-3.462.291-1.483 18.881-6.537 24.097-18.202 18.785-54.187 22.112-74.933 5.504-20.259-16.219-6.513-34.377-3.686-54.942 1.14-8.298-3.925-23.132.454-30.289 5.276-8.621 12.501-12.098 13.924-22.658 4.259-31.595 1.712-64.553 9.982-95.791 4.581-17.303 18.815-28.089 27.576-42.98.475-.808 8.492-14.587 8.167-14.785-.882-.539-8.419 6.162-9.337 7.062-8.669 8.5-17.676 17.159-26.091 25.877-.966 1.002-8.409 9.76-8.986 9.378-9.885-6.538-3.387-26.769-11.827-35.722-11.63-12.337-28.329-4.6-40.232-16.732" style="fill:#832133" transform="matrix(.71471 -.09567 .09567 .71471 35.194 -5.887)"/><path d="M506.442 442.468c.148 1.956 1.253 4.245.728 6.528-.342 2.68-.673 5.418-1.908 7.865-1.106 2.309-1.776 4.717-2.187 7.153.414-.599-1.054 2.696-.276 3.624.001 2.592-.247 5.28.38 7.81.454 2.528.467 5.295 1.932 7.497 1.746 1.656 2.991 4.048 5.068 5.416 1.992 1.362 4.41 1.916 6.649 2.698 2.233 1.333 5.033.403 7.255-.446 1.781-.706 3.919-1.134 5.556-2.532 2.103-.604 3.966-1.764 5.34-3.454 2.635-1.193 2.75-4.45 2.66-6.955-.023-2.292 0-4.601-.603-6.827-.85-2.568-.67-5.29-.754-7.971.262-2.578-.39-5.132-.545-7.696-.118-2.628-.635-5.302-1.867-7.664-.788-2.508-.469-4.838-2.585-6.676-1.451-1.53-3.388-2.328-5.227-3.244-2.044-.974-4.247-.324-6.353-.09-2.12 1.161-5.111-.33-7.208 1.38-2.075.34-3.16 2.261-5.085 2.889-.328.226-.642.471-.97.695zM465.267 473.282c.162 4.146.128 8.305.461 12.434.002 4.201.814 8.441-.208 12.594-.66 3.244-.923 6.58-1.298 9.89.108 3 .312 5.976.348 8.98.016 3.408.601 6.912 2.217 9.92.828 3.318 1.534 6.833 3.888 9.408 1.175 2.02 2.903 3.503 4.486 5.299 1.708 1.91 4.644 3.176 7.212 2.385 2.23-.246 4.987-.55 7.379-1.088 2.904-1.607 5.469-4.039 7.107-6.95 1.576-2.82 1.937-6.148 2.551-9.283.2-2.215-.176-5.267-.39-8.165.13-3.632 1.259-7.084 1.911-10.636.037-1.303 1.025-4.501 1.298-6.488 1.075-2.7-.387-4.925-1.425-7.258-1.105-2.732-1.949-5.672-2.662-8.598-1.281-2.757-2.136-5.697-2.164-8.812-.395-2.453-1.809-4.938-4.486-5.256-3.137-.988-6.21.475-9.106 1.666-2.805.686-5.57 1.765-8.187 2.752-2.323 1.487-4.735.363-6.877-.581-1.047-.28-1.649-1.262-2.055-2.213z" style="fill:#fff;stroke:#000;stroke-width:5;stroke-linecap:butt;stroke-linejoin:miter;stroke-dasharray:none;stroke-opacity:1"/><path d="M466.569 104.577c1.939-5.7 5.298-10.973 10.392-14.35 3.593-3.921 7.56-7.86 9.518-12.96 2.483-5.086 5.349-10.52 11.176-12.296 6.647.45 6.347-4.442 3.18-8.587-2.122-6.216 2.541-12.284 5.8-17.213 3.97-3.728 7.386-8.784 12.789-10.46 2.38 5.867 8.008 4.673 13.08 3.023 6.31-1.97 4.556 5.138 7.636 6.913 4.97.362 7.394 4.605 11.534 6.752 2.453 1.837 13.217 1.497 7.346 5.866-4.55 3.74-6.067 9.861-5.576 15.54-.357 5.536-5.163 8.947-7.414 13.565.232 5.21 5.513 8.95 6.697 14.15 3.113 6.336 5.494 13.521 3.337 20.579-.274 6.03-1.957 11.775-4.01 17.374-.687 6.238 2.504 12.273 2.51 18.604.842 6.178-2.174 11.841-3.584 17.596.277 4.335 1.835 8.684 5.487 11.268 3.265 3.047 7.078 5.658 9.294 9.614.104 4.226-5.004 8.67-9.182 8.224-6.718-.162-11.724-5.23-16.35-9.534-3.913-5.162-5.632-11.551-9.876-16.528-4.426-4.676-11.258-6.652-14.445-12.84-3.714-5.378-10.126-7.943-15.342-11.67-5.924-2.886-12.644-4.849-19.238-3.608-5.528-.052-9.69 3.776-13.505 7.156-3.36.658-3.225 4.726-1.68 7.195 2.319 4.407 3.437 9.178 5.353 13.706 2.112 6.184 1.524 13.182-1.075 19.169-1.26 3.219-5.072 5.805-8.376 3.81-6.32-.514-9.853-7.221-9.384-13.042-.284-6.217 4.29-11.004 6.136-16.608 1.43-6.77.144-14.02 1.885-20.852.827-6.135 1.067-12.274 1.833-18.452.591-5.09-1.672-10.101.65-14.876.687-2.35 1.319-4.799 3.404-6.228z" style="fill:#fff;stroke:#000;stroke-width:5;stroke-linecap:butt;stroke-linejoin:miter;stroke-opacity:1;stroke-dasharray:none"/><path d="M171.396 432.823c.75 3.927 1.712 7.669 3.328 11.333.22.5 1.194 3.325 1.797 3.358 1.213.068 1.892-3.256 2.51-3.852.038-.037 1.164 1.201 1.26 1.312 1.35 1.565 2.57 3.429 4.187 4.735 2.817 2.274 2.422-1.714 4.417-1.503.57.061 1.595 1.522 1.97 1.93 1.26 1.37 4.067 5.138 5.995 5.573 1.662.375 2.977-3.945 4.113-4.261 2.824-.783 6.451 1.566 9.157.637.895-.308.977-2.553 1.034-3.351.253-3.553-1.192-6.474-2.136-9.821-.061-.215-.732-4.992-.374-4.876 2.333.752 1.841 4.11 5.076 3.947 1.42-.072 2.137-4.971 2.299-6.016 1.015-6.546-1.182-12.484-5.096-17.663" style="fill:#fff;stroke-width:4;stroke:#000;stroke-dasharray:none"/><defs><linearGradient id="a" x1="0" x2="1" y1="0" y2="0" gradientTransform="translate(2.82 397.974) scale(1018.9)" gradientUnits="userSpaceOnUse"><stop offset="0" style="stop-color:#2b7923;stop-opacity:1"/><stop offset="1" style="stop-color:#492e6c;stop-opacity:1"/></linearGradient></defs><path d="M262.918 130.5c-.496 3.521.093 6.998.08 9.663 1.283 3.688 3.182 7.185 5.55 10.308 1.664 3.635 5.674 4.554 8.322 7.194 3.605 2.41 6.952 5.079 10.452 7.697 4.554 2.457 8.557 5.977 13.572 7.496 5.362 2.26 10.629 4.798 16.027 7.098 3.402 1.122 8.616 4.029 9.153-1.753 1.03-2.914 4.932-4.72 7.58-3.492 2.872-.53 2.994-5.718 7.18-5.116 2.79-.123 8.447 1.993 8.533-2.424 1.991-4.08.496-9.058 2.98-13.026 2.192-3.625 4.796-7.102 7.77-10.166 2.971-3.34 7.3-5.416 9.384-9.534 1.862-3.866 3.703-5.53 4.368-9.817-.052-.539.026-4.973.065-5.468" style="fill:#fff;stroke:#000;stroke-width:5;stroke-linecap:round;stroke-linejoin:miter;stroke-dasharray:none;stroke-opacity:1"/><path d="M261.738 126.91c-3.866-1.525-9.474-1.852-11.877-5.315.176-5.842-1.919-11.37-3.785-16.79-1.7-5.973-.17-12.061 1.453-17.82 1.725-5.604-.93-11.073-.804-16.685-2-5.905-1.57-11.625 1.463-17.038 2.425-6.538 6.84-12.813 5.838-20.118.592-5.733 2.81-11.572 7-15.692 4.467-3.721 9.92-5.481 14.674-8.64 6.39-4.223 13.706-6.907 21.068-8.848 5.194-.727 10.303-.032 15.156 1.853 4.646 3.44 11.156 5.082 13.888 10.675 3.101 5.184 7.52 9.334 12.685 12.414 4.188 5.564 12.048 8.505 13.245 16.123 1.606 6.94 6.061 12.79 11.54 17.2 2.968 5.345 4.643 11.447 8.187 16.59 1.743 5.277 5.752 9.66 6.098 15.394 1.799 5.758 1.968 11.755 1.773 17.756.322 4.569-3.367 7.59-7.222 8.965-4.706 1.76-9.458 3.215-14.316 4.475-8.872 1.039-17.414 4.513-26.368 5.203-5.629-.52-11.424.173-17.119-.271-6.32-.44-12.695-2.472-18.924-.3-7.256.24-14.419-.104-21.68.442-3.786-.342-7.63-.584-11.244.356l-.729.072z" style="fill:#fff;stroke:#000;stroke-width:5;stroke-linecap:butt;stroke-linejoin:miter;stroke-dasharray:none;stroke-opacity:1"/><path d="M395.998 285.79c1.157-.522 2.383-.28 3.506.192 1.181.303 2.432.357 3.65.42 1.573.064 3.07.617 4.626.785 1.096.473 2.292.444 3.453.393 1.275.026 2.424.482 3.579.919 1.113.555 1.69 1.662 2.77 2.213.862.805 2.249 1.048 2.77 2.276.654 1.152.913 2.471.477 3.78-.49 1.25-1.368 2.272-2.626 2.716-.975.417-2.305.638-3.367.202-1.228-.508-2.437-.947-3.539-1.76-.988-.72-1.942-1.492-2.982-2.122-1.4-.58-2.831-1.275-4.418-1.07-1.297.097-2.732-.136-3.876.577-1.417.286-2.798.764-4.181 1.169-.382-.038-1.429.194-1.457.028" style="fill:#fff;stroke:#000;stroke-width:5;stroke-linecap:round;stroke-linejoin:miter;stroke-dasharray:none;stroke-opacity:1"/><path d="M626.322 279.827c.037 1.73.202 3.455.203 5.186.165.514.203 1.019.24 1.655.375.85.378 1.82.165 2.713.08.778-.366 1.338-.641 2.002-.24.602-1.061 1.282-1.664.805-.436-.56-.812-1.17-.964-1.871" style="fill:none;stroke:#000;stroke-width:5;stroke-linecap:round;stroke-linejoin:miter;stroke-dasharray:none;stroke-opacity:1"/></svg>