<?xml version="1.0" encoding="UTF-8" standalone="no"?>
<!DOCTYPE svg PUBLIC "-//W3C//DTD SVG 1.1//EN" "http://www.w3.org/Graphics/SVG/1.1/DTD/svg11.dtd">
<svg width="100%" height="100%" viewBox="0 0 64 64" version="1.1" xmlns="http://www.w3.org/2000/svg" xmlns:xlink="http://www.w3.org/1999/xlink" xml:space="preserve" xmlnsSerif="http://www.serif.com/" style="fill-rule:evenodd;clip-rule:evenodd;stroke-linejoin:round;stroke-miterlimit:2;">
    <g>
        <path d="M21.3,37.3C28.8,37.3 34.6,31.4 34.6,24C34.6,16.6 28.7,10.7 21.3,10.7C13.9,10.7 8,16.5 8,24C8,31.5 13.9,37.3 21.3,37.3ZM21.3,16C25.8,16 29.3,19.5 29.3,24C29.3,28.5 25.8,32 21.3,32C16.8,32 13.3,28.5 13.3,24C13.3,19.5 16.8,16 21.3,16Z" style="fill:white;fill-rule:nonzero;"/>
        <path d="M21.3,40C13.6,40 6.4,43.2 0.8,48.8C-0.3,49.9 -0.3,51.5 0.8,52.5C1.9,53.5 3.5,53.6 4.5,52.5C9,48 15.2,45.3 21.3,45.3C27.4,45.3 33.3,48 38.1,52.5C38.6,53 39.4,53.3 40,53.3C40.8,53.3 41.3,53 41.9,52.5C43,51.4 43,49.8 41.9,48.8C36.2,43.2 28.8,40 21.3,40Z" style="fill:white;fill-rule:nonzero;"/>
        <path d="M48,37.3C52.5,37.3 56,33.8 56,29.3C56,24.8 52.5,21.3 48,21.3C43.5,21.3 40,24.8 40,29.3C40,33.8 43.4,37.3 48,37.3ZM48,26.7C49.6,26.7 50.7,27.8 50.7,29.4C50.7,31 49.6,32.1 48,32.1C46.4,32.1 45.3,31 45.3,29.4C45.3,27.7 46.4,26.7 48,26.7Z" style="fill:white;fill-rule:nonzero;"/>
        <path d="M63.2,46.1C57.6,40.8 49.9,38.9 42.1,40.8C40.8,41.1 39.7,42.7 40.2,44C40.5,45.3 42.1,46.4 43.4,45.9C49.3,44.3 55.4,45.9 59.7,49.9C60.2,50.4 60.8,50.7 61.6,50.7C62.4,50.7 62.9,50.4 63.5,49.9C64.2,48.8 64.2,46.9 63.2,46.1Z" style="fill:white;fill-rule:nonzero;"/>
    </g>
</svg>
